<?xml version="1.0" standalone="no"?>
<!DOCTYPE svg PUBLIC "-//W3C//DTD SVG 20010904//EN"
 "http://www.w3.org/TR/2001/REC-SVG-20010904/DTD/svg10.dtd">
<svg version="1.0" xmlns="http://www.w3.org/2000/svg"
 width="2175.000000pt" height="2175.000000pt" viewBox="0 0 2175.000000 2175.000000"
 preserveAspectRatio="xMidYMid meet">
<metadata>
Created by potrace 1.14, written by Peter Selinger 2001-2017
</metadata>
<g transform="translate(0.000000,2175.000000) scale(0.100000,-0.100000)"
fill="#000000" stroke="none">
<path d="M2797 16134 c-1 -2 -25 -5 -52 -8 -28 -2 -50 -5 -50 -6 0 -1 -18 -3
-40 -5 -22 -1 -40 -4 -40 -5 0 -1 -18 -4 -39 -6 -21 -3 -47 -9 -56 -14 -11 -6
-21 -5 -30 3 -10 10 -11 9 -5 -2 6 -11 4 -13 -8 -8 -10 3 -17 2 -17 -4 0 -6
-4 -7 -10 -4 -5 3 -19 -1 -31 -9 -12 -8 -27 -12 -35 -9 -8 3 -16 -2 -20 -10
-3 -9 -11 -14 -17 -11 -28 10 -170 -160 -150 -180 3 -3 1 -6 -5 -6 -6 0 -13
-13 -17 -30 -4 -16 -10 -30 -14 -30 -4 0 -8 -6 -9 -12 -5 -41 -9 -55 -20 -75
-7 -12 -13 -33 -14 -47 -1 -15 -6 -26 -10 -26 -4 0 -5 -10 -3 -22 3 -12 1 -25
-4 -28 -5 -3 -11 -21 -14 -40 -3 -19 -8 -48 -12 -65 -8 -43 -24 -133 -30 -180
-4 -22 -9 -53 -12 -70 -3 -16 -6 -51 -8 -76 -2 -41 1 -49 21 -60 13 -7 24 -16
24 -21 0 -4 7 -8 16 -8 8 0 12 -4 9 -10 -3 -5 1 -10 9 -10 8 0 22 -10 30 -22
9 -12 16 -19 16 -14 0 7 80 -52 100 -74 3 -3 10 -6 16 -7 12 -2 13 3 16 97 1
30 6 58 12 62 8 5 7 8 0 8 -8 0 -10 11 -5 33 4 17 6 47 5 65 -1 17 1 32 4 32
4 0 7 19 8 43 1 59 7 120 13 131 4 9 9 49 13 118 2 28 25 43 68 43 14 0 28 4
32 9 4 6 12 5 21 -3 10 -7 17 -8 21 -2 4 5 14 10 24 11 9 0 43 1 74 3 32 1 58
5 58 8 0 3 17 5 38 4 20 -2 43 2 50 7 8 7 12 7 12 0 0 -6 7 -9 16 -5 9 3 19 1
23 -6 4 -6 6 -81 4 -167 l-3 -156 -46 -86 c-26 -48 -53 -95 -62 -105 -8 -9
-13 -20 -9 -23 3 -3 -3 -15 -13 -27 -11 -11 -17 -24 -14 -29 3 -4 2 -8 -3 -8
-4 0 -13 -10 -19 -23 -46 -95 -103 -195 -108 -189 -4 3 -4 -1 0 -11 4 -10 1
-17 -6 -17 -7 0 -10 -7 -6 -15 3 -8 0 -14 -7 -12 -7 1 -11 -5 -9 -13 2 -8 -3
-19 -10 -25 -7 -5 -15 -19 -16 -30 -2 -11 -7 -22 -11 -25 -4 -3 -20 -32 -36
-65 -16 -33 -36 -71 -44 -84 -8 -13 -16 -30 -17 -38 -2 -8 -10 -23 -20 -34 -9
-10 -15 -19 -11 -19 3 0 -21 -53 -52 -117 -32 -65 -61 -128 -65 -140 -4 -13
-12 -23 -17 -23 -5 0 -8 -3 -7 -7 0 -5 -1 -15 -4 -23 -12 -31 -19 -55 -18 -59
1 -2 -3 -7 -9 -10 -6 -4 -12 -18 -14 -31 -2 -13 -9 -26 -15 -28 -7 -2 -10 -8
-6 -13 3 -5 2 -15 -3 -21 -4 -7 -9 -17 -10 -23 -15 -63 -18 -94 -17 -180 1
-62 8 -123 19 -160 10 -33 20 -75 22 -92 3 -18 10 -33 16 -33 6 0 8 -3 4 -6
-3 -3 1 -25 10 -47 8 -23 16 -46 17 -52 1 -5 7 -20 14 -31 6 -12 9 -24 6 -26
-2 -3 9 -11 26 -18 16 -7 30 -16 30 -20 0 -5 9 -6 20 -3 11 3 20 0 20 -6 0 -6
3 -10 8 -9 4 1 32 -6 62 -16 30 -9 66 -20 80 -22 14 -3 27 -9 28 -15 2 -5 7
-7 11 -4 5 2 39 -2 77 -9 167 -34 331 -47 384 -31 84 25 131 105 156 265 3 19
7 45 9 56 7 46 16 196 20 342 4 148 3 153 -19 175 -52 51 -85 75 -92 69 -4 -4
-4 1 -1 11 4 10 3 16 -2 13 -8 -5 -92 60 -99 77 -2 4 -8 5 -13 1 -5 -3 -9 1
-9 9 0 8 -8 17 -18 19 -15 4 -17 -1 -16 -41 1 -25 3 -48 4 -51 1 -3 1 -9 0
-15 -7 -32 -6 -56 2 -61 4 -3 5 -10 2 -16 -10 -16 -11 -98 -1 -98 4 0 6 -4 2
-9 -8 -15 -13 -71 -5 -71 6 0 6 -40 0 -47 -6 -7 -5 -29 1 -38 4 -5 2 -15 -5
-20 -15 -13 -66 -15 -66 -2 0 5 -6 4 -14 -2 -10 -9 -16 -9 -21 -1 -5 8 -11 8
-21 -1 -8 -6 -14 -7 -14 -2 0 5 -19 9 -42 9 -68 0 -236 18 -243 26 -2 2 2 17
10 32 8 16 15 35 15 42 0 8 5 14 10 14 6 0 10 9 10 20 0 11 5 20 12 20 6 0 9
3 5 6 -3 4 0 19 9 35 8 16 14 32 13 35 0 4 3 10 8 13 11 8 63 113 63 127 0 7
7 17 15 24 8 7 13 16 10 20 -2 3 3 17 12 30 14 20 93 169 169 320 16 30 32 57
36 58 5 2 6 8 2 13 -3 5 0 9 5 9 6 0 11 6 11 14 0 8 7 22 16 30 11 11 12 16 3
16 -7 0 -4 6 7 15 10 8 15 15 11 15 -5 0 -1 7 7 16 9 8 16 22 16 30 0 8 4 14
10 14 5 0 9 3 8 8 -1 4 9 27 22 52 13 25 23 48 22 53 -1 4 3 7 8 7 5 0 10 3 9
8 -2 13 13 52 20 52 4 0 8 6 9 13 5 40 15 77 21 77 4 0 8 6 8 13 1 11 6 44 21
132 12 69 4 730 -8 730 -1 0 -3 11 -5 25 -7 61 -15 107 -24 137 -5 17 -6 35
-3 39 4 4 2 4 -5 0 -8 -4 -15 2 -19 19 -3 14 -10 25 -16 25 -5 0 -6 5 -3 10 3
6 -1 10 -9 10 -9 0 -16 4 -16 8 0 13 -41 31 -92 41 -26 4 -49 7 -51 5z"/>
<path d="M3447 16022 c-45 -28 -58 -81 -53 -207 3 -60 7 -123 10 -140 2 -16 7
-57 11 -90 4 -32 8 -66 10 -75 1 -8 6 -51 10 -95 4 -44 9 -83 11 -87 8 -13 99
-71 112 -71 6 0 12 -7 12 -14 0 -8 5 -11 10 -8 6 3 10 1 10 -4 0 -6 5 -11 12
-11 6 0 26 -11 45 -26 18 -14 38 -22 43 -19 6 4 9 1 8 -5 -2 -7 5 -14 16 -15
16 -3 18 1 11 38 -4 23 -9 60 -10 82 -2 22 -6 56 -10 75 -19 98 -22 156 -7
153 7 -2 12 3 12 10 0 8 3 8 8 1 6 -9 57 -24 132 -40 14 -3 32 -8 40 -11 30
-12 35 -13 68 -19 17 -4 32 -11 32 -17 0 -6 3 -7 6 -4 11 10 63 -26 70 -48 4
-11 9 -22 13 -25 7 -6 30 -65 36 -93 2 -9 6 -21 9 -25 3 -5 7 -19 10 -33 3
-13 10 -41 15 -61 5 -21 7 -38 4 -38 -3 0 -1 -6 4 -12 9 -14 15 -55 17 -123
l1 -40 -55 2 c-30 0 -105 4 -166 8 -95 5 -112 4 -117 -9 -3 -8 -3 -17 1 -20
13 -8 21 -315 10 -323 -5 -2 -5 -10 -1 -16 10 -16 10 -167 0 -167 -5 0 -5 -4
-2 -10 7 -11 193 -9 212 3 6 4 14 3 18 -3 4 -7 13 -6 27 1 16 9 19 8 13 -2 -6
-8 -4 -10 5 -4 22 13 73 13 87 0 9 -9 11 -35 8 -90 -3 -43 -8 -82 -11 -87 -6
-10 -11 -37 -16 -88 -2 -14 -6 -28 -10 -31 -5 -3 -9 -18 -11 -35 -2 -16 -9
-39 -15 -50 -6 -12 -9 -23 -7 -25 2 -3 -9 -31 -25 -64 -16 -33 -30 -55 -30
-50 0 6 -5 2 -11 -7 -5 -10 -19 -18 -30 -18 -11 0 -17 -4 -14 -10 3 -5 0 -7
-9 -4 -8 3 -23 1 -34 -5 -11 -6 -34 -13 -52 -16 -18 -3 -41 -10 -51 -16 -11
-5 -19 -7 -19 -3 0 3 -7 1 -15 -6 -8 -7 -15 -10 -15 -7 0 3 -24 -1 -52 -9
-107 -29 -107 -29 -105 11 1 19 5 35 8 35 3 0 4 13 1 29 -2 16 1 32 8 36 8 5
8 10 -1 21 -6 8 -7 14 -2 14 5 0 9 10 9 23 1 43 13 140 19 145 2 3 0 11 -6 19
-8 9 -8 13 0 13 6 0 9 10 7 23 -3 12 -5 24 -5 27 -1 3 -5 0 -9 -5 -13 -19 -69
-55 -76 -48 -3 3 -6 1 -6 -4 0 -6 -20 -24 -45 -40 -25 -15 -45 -31 -45 -35 0
-5 -6 -8 -13 -8 -7 0 -22 -8 -33 -17 -11 -10 -28 -23 -39 -29 -20 -11 -21 -15
-30 -117 -4 -38 -8 -76 -9 -85 -2 -9 -7 -48 -11 -87 -4 -38 -9 -79 -11 -90
-13 -62 -19 -259 -11 -305 6 -27 37 -91 37 -75 0 6 4 4 8 -3 8 -11 43 -24 67
-23 11 0 49 8 53 11 1 2 5 3 10 5 4 1 18 6 32 12 122 51 154 66 185 83 19 11
35 17 35 13 0 -4 7 2 15 13 8 10 15 15 15 11 0 -5 7 -1 16 7 8 9 20 13 26 10
7 -4 8 -2 4 4 -6 11 0 14 20 11 4 0 10 3 13 8 3 5 22 20 41 33 50 36 220 211
220 227 0 3 9 14 21 24 11 9 20 20 20 23 -1 6 72 124 89 143 6 7 11 15 11 18
3 24 13 45 21 45 5 0 7 4 3 9 -3 5 -1 12 5 16 6 4 8 11 5 16 -4 5 -1 9 4 9 6
0 11 6 11 14 0 7 7 27 15 42 8 16 15 39 15 52 0 16 4 21 13 16 6 -4 9 -4 5 0
-3 4 -2 22 4 39 32 106 39 143 44 238 9 148 -16 242 -82 305 -13 12 -20 25
-17 28 4 3 1 6 -5 6 -9 0 -9 5 0 19 7 11 17 17 23 14 5 -4 7 -3 3 2 -4 4 4 27
17 51 14 24 20 44 14 44 -8 0 -8 5 1 15 16 20 4 222 -17 275 -3 8 -8 24 -10
34 -2 11 -8 25 -13 31 -5 7 -7 15 -3 18 3 4 0 13 -7 22 -7 8 -10 15 -7 15 3 0
0 12 -8 27 -8 15 -12 30 -9 35 3 4 0 8 -5 8 -6 0 -11 6 -11 12 0 13 -59 139
-70 148 -3 3 -12 19 -20 35 -8 17 -23 37 -33 47 -13 12 -15 17 -5 21 8 4 7 6
-4 6 -10 1 -17 5 -15 10 4 16 -138 183 -147 174 -3 -4 -6 1 -6 9 0 9 -12 24
-27 34 -15 9 -36 25 -46 35 -11 10 -32 23 -48 29 -16 7 -26 16 -23 21 2 5 -7
11 -22 15 -15 4 -43 18 -62 31 -19 12 -43 23 -53 23 -11 0 -19 3 -19 8 0 6
-73 44 -90 46 -3 1 -18 6 -35 13 -16 6 -39 14 -50 18 -38 14 -82 13 -108 -3z"/>
<path d="M2060 15935 c-7 -8 -16 -12 -21 -9 -5 3 -8 0 -7 -8 2 -7 -2 -12 -9
-11 -6 1 -17 -4 -23 -12 -7 -8 -18 -15 -24 -15 -7 0 -21 -8 -32 -19 -11 -10
-31 -24 -45 -31 -33 -18 -69 -52 -69 -67 0 -7 -4 -13 -9 -13 -5 0 -13 -9 -16
-20 -4 -11 -11 -18 -16 -15 -5 4 -9 0 -9 -8 0 -7 -9 -23 -20 -35 -11 -12 -20
-26 -20 -31 0 -5 -9 -16 -20 -24 -11 -8 -18 -16 -15 -19 3 -3 -1 -11 -10 -18
-8 -7 -15 -16 -15 -21 0 -4 -11 -20 -25 -35 -13 -14 -22 -30 -20 -34 3 -4 -2
-10 -10 -14 -8 -3 -15 -12 -15 -21 0 -8 -4 -15 -9 -15 -5 0 -13 -10 -17 -22
-4 -13 -10 -25 -13 -28 -11 -8 -71 -110 -71 -120 0 -6 -5 -10 -11 -10 -5 0 -7
-5 -4 -10 3 -6 -1 -13 -9 -16 -9 -3 -14 -10 -11 -14 3 -5 -2 -16 -11 -24 -8
-9 -12 -16 -8 -16 4 0 0 -8 -9 -18 -10 -10 -14 -22 -11 -25 4 -4 2 -12 -4 -20
-10 -11 -16 -34 -38 -132 -15 -67 -25 -128 -31 -185 -7 -67 -7 -264 0 -290 10
-39 32 -69 56 -76 39 -11 203 -13 223 -3 31 17 43 61 43 161 0 54 2 98 5 98 3
0 5 11 5 25 0 14 -4 25 -8 25 -5 0 -6 4 -3 8 5 8 9 40 20 157 2 22 8 63 12 90
15 93 10 163 -11 179 -11 8 -24 12 -29 9 -4 -3 -12 1 -17 8 -4 8 -4 16 2 20 6
3 11 12 12 20 2 8 13 34 26 59 13 25 36 68 50 95 14 28 28 52 31 55 6 5 19 36
20 45 0 3 9 15 19 27 11 11 18 25 15 30 -3 4 0 8 5 8 6 0 11 5 11 11 0 7 8 19
18 28 9 9 18 21 19 26 2 14 85 139 95 143 4 2 8 9 8 15 0 7 11 24 25 39 14 15
25 32 25 37 0 5 6 16 13 23 15 16 47 65 47 73 0 10 -18 5 -30 -10z"/>
<path d="M8430 14881 c0 -3 -19 -7 -43 -7 -53 -2 -130 -14 -137 -23 -3 -3 -14
-7 -25 -9 -19 -2 -44 -8 -55 -12 -3 -1 -8 -2 -12 -2 -3 1 -12 -5 -18 -13 -7
-8 -19 -15 -26 -15 -8 0 -33 -12 -57 -27 -23 -15 -44 -28 -47 -28 -19 -2 -163
-145 -187 -186 -10 -16 -21 -29 -26 -29 -4 0 -6 -4 -2 -9 3 -6 0 -13 -8 -18
-10 -7 -38 -54 -42 -73 0 -3 -7 -16 -15 -30 -8 -14 -15 -28 -16 -32 -1 -5 -2
-9 -4 -10 -1 -2 -3 -10 -5 -19 -2 -14 1 -15 25 -6 16 6 27 14 25 18 -3 3 9 5
25 4 17 -1 30 2 30 7 0 6 6 8 14 5 8 -3 17 -3 20 1 7 7 23 10 80 17 21 2 41 7
44 10 3 2 12 -1 20 -8 11 -8 14 -9 9 0 -5 7 -1 12 10 12 10 0 70 0 133 0 144
0 186 -2 195 -11 4 -4 16 -3 26 3 11 5 19 6 19 1 0 -7 43 -12 107 -12 12 0 25
-5 28 -10 4 -7 13 -7 24 0 10 5 22 5 27 0 5 -4 23 -10 39 -11 17 -2 36 -7 43
-12 8 -6 12 -5 12 4 0 11 2 11 10 -1 5 -8 10 -12 10 -8 0 3 27 0 61 -8 33 -8
64 -12 69 -9 5 3 11 1 15 -5 4 -6 11 -8 16 -5 5 4 9 2 9 -4 0 -5 8 -8 18 -7 9
2 31 -1 47 -6 17 -5 41 -11 53 -14 13 -3 49 -12 80 -20 58 -15 89 -23 107 -27
6 -2 16 -6 23 -10 6 -5 17 -5 22 -2 6 3 10 2 10 -4 0 -6 6 -8 14 -5 8 3 17 0
21 -5 3 -6 11 -9 16 -6 5 4 9 2 9 -3 0 -6 8 -8 19 -5 10 3 22 0 25 -6 4 -6 16
-11 26 -11 10 0 31 -5 47 -12 15 -6 36 -13 46 -14 16 -4 212 -68 247 -81 8 -4
18 -5 23 -5 4 1 7 -2 7 -8 0 -5 7 -7 15 -4 8 4 15 1 15 -6 0 -6 4 -9 8 -6 5 3
19 -1 33 -8 13 -7 27 -13 32 -14 4 -1 9 -3 12 -3 3 -1 10 -3 15 -4 6 -1 11 -3
13 -5 1 -1 11 -3 21 -5 10 -2 22 -7 25 -12 3 -4 14 -9 25 -11 10 -2 30 -8 45
-14 14 -6 28 -12 31 -13 3 -1 12 -5 20 -8 43 -18 130 -48 136 -47 4 1 10 -3
14 -10 4 -6 17 -12 28 -13 12 -1 22 -5 22 -9 0 -4 7 -8 15 -8 16 0 25 -4 85
-36 19 -10 37 -18 40 -17 8 1 29 -7 97 -38 34 -15 64 -25 67 -21 3 3 6 0 6 -7
0 -7 5 -9 10 -6 6 3 10 1 10 -4 0 -6 9 -11 20 -11 11 0 20 -5 20 -11 0 -5 5
-7 10 -4 6 3 10 1 10 -5 0 -6 5 -8 10 -5 6 3 24 -4 42 -16 17 -13 28 -16 23
-8 -5 8 0 6 13 -4 11 -11 25 -16 30 -13 6 3 13 -1 16 -9 3 -8 9 -14 13 -13 4
1 18 -3 31 -10 12 -7 22 -9 22 -5 0 4 4 3 8 -3 8 -12 127 -68 138 -65 4 2 10
-1 13 -6 7 -11 110 -63 124 -63 4 0 15 -7 24 -15 8 -8 19 -13 24 -10 5 4 9 1
9 -6 0 -7 3 -9 6 -6 4 4 20 -3 35 -14 16 -11 29 -17 29 -12 0 4 4 4 8 -2 9
-12 84 -49 95 -47 4 1 7 -3 7 -9 0 -5 5 -7 10 -4 6 3 10 2 10 -2 0 -5 16 -15
36 -22 19 -7 38 -19 40 -26 3 -8 12 -11 20 -8 8 3 14 0 14 -6 0 -6 6 -11 14
-11 16 0 87 -39 97 -53 3 -4 15 -9 27 -10 12 0 24 -7 27 -15 3 -7 9 -10 15 -7
5 3 10 1 10 -4 0 -6 4 -11 9 -11 5 0 58 -27 117 -60 59 -33 111 -60 116 -60 4
0 8 -4 8 -10 0 -5 6 -10 14 -10 8 0 22 -7 30 -16 9 -8 20 -13 25 -10 5 3 12
-1 15 -10 3 -8 10 -12 16 -9 5 3 10 2 10 -2 0 -5 21 -20 47 -33 26 -14 52 -28
58 -33 32 -23 85 -56 85 -51 0 2 10 -4 22 -16 12 -11 28 -20 35 -20 7 0 13 -4
13 -8 0 -4 16 -14 35 -21 19 -7 35 -17 35 -22 0 -5 7 -9 15 -9 8 0 15 -4 15
-9 0 -5 8 -11 18 -15 9 -3 31 -15 47 -26 17 -10 42 -26 58 -35 15 -9 27 -20
27 -25 0 -6 3 -9 8 -8 9 3 86 -43 90 -54 2 -4 8 -8 12 -8 12 0 104 -62 108
-72 2 -4 10 -8 18 -8 8 0 17 -7 20 -15 4 -8 10 -12 15 -9 5 3 9 0 9 -5 0 -6 7
-11 15 -11 8 0 15 -4 15 -10 0 -5 7 -10 15 -10 8 0 15 -4 15 -10 0 -5 4 -10
10 -10 5 0 18 -6 27 -14 66 -54 113 -84 118 -76 3 6 2 10 -4 10 -6 0 -21 10
-33 23 -13 12 -39 33 -57 47 -19 14 -45 35 -60 47 -14 13 -32 23 -39 23 -7 0
-11 3 -9 8 5 8 -13 26 -30 29 -6 2 -22 13 -35 25 -38 37 -101 83 -109 81 -4
-2 -11 7 -14 19 -5 15 -9 17 -15 8 -6 -9 -10 -7 -15 9 -3 12 -11 19 -16 16 -5
-4 -12 1 -15 9 -3 9 -12 16 -19 16 -7 0 -15 3 -17 8 -2 4 -23 23 -48 42 -25
19 -54 43 -64 52 -11 10 -26 18 -33 18 -8 0 -11 5 -8 10 3 6 -1 10 -9 10 -9 0
-16 5 -16 10 0 6 -6 10 -13 10 -7 0 -19 9 -27 20 -8 11 -19 20 -25 20 -5 0
-27 15 -47 34 -20 19 -38 32 -40 30 -2 -2 -19 10 -37 26 -18 17 -36 30 -42 30
-5 0 -9 5 -9 10 0 6 -6 10 -14 10 -8 0 -16 4 -18 8 -2 4 -29 26 -60 49 -32 22
-54 44 -50 48 4 5 1 5 -5 1 -8 -4 -24 5 -41 21 -15 15 -35 29 -42 31 -8 2 -17
7 -20 11 -3 4 -27 23 -55 42 -27 18 -58 43 -67 53 -10 10 -18 16 -18 12 0 -8
-73 45 -78 57 -2 4 -8 7 -14 7 -5 0 -16 6 -23 13 -31 27 -44 37 -50 37 -8 0
-78 52 -87 65 -4 5 -8 7 -8 3 0 -5 -10 1 -22 12 -13 10 -27 20 -33 21 -5 2
-15 8 -21 14 -6 6 -41 31 -78 55 -36 24 -66 48 -66 52 0 5 -4 7 -8 4 -5 -3
-19 4 -30 15 -12 11 -22 16 -22 12 0 -4 -4 -3 -8 2 -10 14 -131 95 -142 95 -5
0 -14 8 -19 18 -6 9 -11 13 -11 9 0 -5 -18 6 -40 23 -22 17 -40 28 -40 23 0
-4 -4 -3 -8 2 -12 16 -144 100 -151 96 -2 -2 -8 4 -13 13 -5 9 -16 16 -23 16
-8 0 -15 5 -15 11 0 5 -4 7 -10 4 -5 -3 -10 -1 -10 5 0 6 -4 8 -10 5 -5 -3
-10 -2 -10 3 0 5 -15 17 -32 26 -18 9 -46 25 -63 36 -76 48 -199 118 -208 118
-5 1 -17 10 -27 22 -13 15 -19 17 -23 8 -3 -8 -6 -9 -6 -2 -1 7 -25 24 -53 39
-29 15 -56 32 -59 37 -3 5 -9 10 -12 9 -17 -1 -107 47 -118 62 -3 5 -9 9 -12
9 -19 0 -47 12 -47 19 0 5 -6 9 -13 9 -15 0 -81 32 -102 50 -8 6 -20 13 -27
15 -38 9 -58 18 -58 27 0 5 -4 7 -9 3 -5 -3 -15 0 -23 7 -7 7 -20 14 -28 16
-8 2 -17 7 -20 10 -3 4 -23 13 -45 21 -22 8 -67 26 -100 41 -136 63 -205 90
-205 83 0 -3 -11 2 -25 11 -13 9 -33 16 -45 16 -11 0 -20 5 -20 12 0 6 -3 9
-6 5 -4 -3 -19 0 -35 9 -16 8 -29 12 -29 10 0 -3 -19 2 -42 10 -98 34 -261 77
-290 76 -10 0 -18 3 -18 8 0 5 -11 7 -24 4 -14 -2 -27 0 -30 4 -3 5 -19 7 -35
6 -17 -1 -31 1 -31 5 0 4 -15 7 -32 6 -18 0 -36 4 -40 10 -5 6 -8 5 -8 -3 0
-7 -5 -10 -11 -6 -14 8 -229 13 -229 5z"/>
<path d="M6442 14850 c2 -8 -6 -25 -17 -36 -30 -31 -55 -63 -55 -70 0 -3 -11
-20 -25 -38 -35 -44 -52 -67 -78 -102 -24 -35 -141 -187 -168 -219 -75 -89
-151 -178 -184 -214 -55 -59 -65 -71 -102 -114 -18 -21 -33 -35 -33 -32 0 3
-6 0 -14 -7 -8 -7 -12 -16 -9 -20 2 -5 -3 -8 -12 -8 -9 0 -14 -3 -12 -7 2 -5
-4 -16 -15 -25 -10 -10 -18 -16 -18 -14 0 2 -15 -10 -33 -27 -18 -18 -32 -34
-32 -37 2 -9 -64 -68 -69 -62 -3 3 -6 -3 -6 -13 0 -10 -3 -16 -6 -12 -6 5 -90
-69 -142 -125 -14 -15 -29 -25 -33 -22 -5 3 -9 -2 -9 -10 0 -9 -3 -16 -7 -16
-5 0 -20 -10 -34 -23 -41 -34 -77 -63 -168 -135 -47 -37 -95 -77 -108 -89 -13
-12 -23 -20 -23 -17 0 3 -6 0 -12 -6 -7 -6 -47 -36 -88 -66 -41 -30 -82 -60
-90 -67 -19 -16 -51 -35 -72 -43 -10 -3 -16 -10 -13 -14 4 -6 -44 -34 -53 -31
-1 1 -15 -10 -30 -24 -15 -14 -39 -31 -54 -38 -16 -6 -28 -14 -28 -17 0 -3
-17 -14 -37 -25 -21 -11 -43 -27 -50 -35 -7 -8 -13 -11 -13 -7 0 5 -7 1 -16
-7 -8 -9 -19 -14 -24 -11 -4 3 -10 -2 -14 -10 -3 -8 -12 -15 -21 -15 -8 0 -15
-4 -15 -10 0 -5 -5 -10 -11 -10 -6 0 -30 -14 -55 -30 -24 -17 -44 -28 -44 -25
0 4 -7 -1 -16 -9 -8 -9 -20 -14 -25 -11 -5 4 -9 1 -9 -4 0 -6 -7 -11 -15 -11
-8 0 -15 -4 -15 -10 0 -5 -4 -10 -9 -10 -12 0 -175 -93 -179 -102 -2 -5 -8 -5
-14 -2 -6 4 -13 2 -17 -3 -3 -5 -40 -26 -82 -47 -42 -20 -79 -40 -83 -44 -4
-4 -11 -7 -14 -8 -4 0 -51 -22 -104 -47 -53 -26 -101 -47 -107 -47 -6 0 -11
-4 -11 -8 0 -5 -18 -14 -40 -21 -22 -6 -40 -16 -40 -21 0 -5 -9 -7 -19 -5 -11
2 -22 -2 -24 -9 -3 -8 -18 -17 -34 -20 -15 -4 -49 -18 -75 -31 -25 -13 -49
-21 -52 -18 -3 4 -6 2 -6 -3 0 -5 -10 -10 -22 -11 -11 -1 -24 -6 -27 -11 -5
-8 -48 -25 -61 -25 -3 1 -14 -6 -25 -13 -11 -8 -27 -14 -37 -14 -10 0 -18 -4
-18 -9 0 -6 -9 -8 -20 -6 -11 2 -20 0 -20 -6 0 -5 -4 -9 -9 -9 -5 0 -25 -7
-45 -15 -20 -8 -37 -15 -38 -14 -2 0 -34 -13 -71 -30 -38 -17 -75 -31 -83 -31
-17 0 -56 -21 -66 -35 -5 -6 -8 -4 -8 4 0 11 -4 11 -18 -2 -10 -10 -22 -14
-25 -11 -4 4 -12 2 -19 -3 -11 -9 -266 -102 -293 -107 -5 -1 -16 -5 -22 -9 -7
-5 -13 -5 -13 -1 0 3 -6 1 -14 -5 -7 -6 -25 -12 -40 -13 -14 -1 -26 -7 -26
-12 0 -5 -3 -6 -7 -3 -3 4 -12 2 -20 -4 -7 -6 -13 -8 -13 -4 0 4 -7 2 -15 -5
-8 -7 -15 -10 -15 -6 0 3 -16 0 -35 -8 -20 -9 -36 -15 -38 -15 -1 0 -9 -2 -17
-5 -68 -22 -124 -38 -138 -41 -9 -2 -17 -4 -17 -5 0 -1 -8 -3 -17 -6 -30 -7
-42 -11 -58 -17 -8 -4 -24 -8 -35 -10 -11 -2 -27 -6 -35 -9 -44 -16 -119 -35
-157 -40 -7 -1 -13 -4 -13 -7 0 -6 -26 -11 -67 -14 -7 0 -13 -5 -13 -10 0 -5
-11 -7 -25 -4 -14 2 -23 2 -20 -1 5 -5 -144 -47 -235 -67 -14 -3 -36 -8 -50
-12 -14 -3 -31 -6 -37 -6 -7 0 -13 -3 -13 -7 0 -4 -10 -6 -23 -6 -12 1 -26 -1
-32 -5 -5 -4 -26 -10 -45 -13 -47 -9 -53 -11 -65 -17 -5 -4 -18 -5 -27 -4 -10
2 -18 0 -18 -4 0 -6 -25 -11 -67 -14 -7 0 -13 -4 -13 -8 0 -4 -8 -6 -17 -4
-10 1 -28 -2 -41 -6 -13 -5 -35 -11 -50 -14 -48 -9 -73 -14 -90 -19 -9 -3 -28
-7 -42 -10 -14 -3 -36 -7 -50 -10 -83 -18 -131 -27 -149 -29 -12 -1 -21 -4
-21 -8 0 -4 -8 -6 -17 -5 -10 2 -35 -3 -55 -10 -26 -9 -38 -10 -38 -2 0 7 -4
7 -13 -1 -8 -6 -17 -8 -20 -4 -4 3 -7 2 -7 -3 0 -6 -10 -11 -22 -11 -13 -1
-36 -4 -53 -7 -16 -3 -41 -8 -55 -10 -14 -3 -27 -5 -30 -6 -11 -4 -26 -7 -48
-8 -14 -1 -21 -6 -16 -13 5 -8 2 -9 -11 -2 -29 17 -55 4 -55 -26 0 -15 6 -28
13 -29 41 -6 584 -7 642 -2 39 4 73 2 76 -3 4 -5 9 -5 13 1 3 5 30 11 58 11
29 1 73 3 98 5 25 2 81 7 125 10 44 4 96 9 115 11 19 3 58 7 85 10 28 2 50 5
50 5 0 1 14 3 30 5 88 10 133 15 165 21 19 3 45 6 58 6 12 0 22 3 22 7 0 3 21
6 46 6 25 0 48 3 50 7 3 4 18 6 34 4 17 -2 30 0 30 4 0 4 30 11 68 16 83 9 75
8 90 18 7 4 16 6 18 3 3 -3 20 -1 37 4 18 4 47 11 65 14 18 3 60 12 93 19 33
8 62 15 64 15 3 1 6 1 8 2 1 0 13 3 27 6 39 7 55 11 55 13 0 1 8 3 19 5 34 7
121 26 136 31 8 3 16 5 17 5 2 1 26 7 55 15 53 15 81 22 108 29 8 2 15 4 15 5
0 1 7 3 15 5 39 9 200 58 246 75 29 10 55 16 58 13 3 -4 6 -2 6 3 0 5 10 11
22 11 13 1 24 7 26 13 2 5 7 8 11 5 5 -2 38 7 76 20 37 14 71 23 75 20 5 -3
10 -1 12 4 2 8 103 50 153 65 6 2 24 9 40 15 67 28 104 39 111 33 4 -4 4 -1 0
6 -5 8 -1 12 12 12 10 0 22 3 26 8 4 4 11 7 14 8 4 0 20 6 35 12 16 7 33 12
38 12 5 0 9 4 9 9 0 5 15 13 33 16 17 4 44 16 58 26 14 10 29 15 33 11 4 -4
13 0 19 8 7 8 21 16 32 18 11 2 25 9 30 16 6 7 16 11 23 9 6 -3 12 0 12 6 0 6
6 11 13 11 21 1 327 158 339 175 4 6 8 7 8 3 0 -4 16 4 36 17 20 14 41 22 47
18 6 -3 7 -1 3 5 -4 7 -4 12 1 12 4 0 24 10 43 22 19 12 38 22 42 23 4 0 16 8
28 17 11 10 20 15 20 12 0 -3 7 2 16 10 8 9 19 14 24 11 4 -3 11 2 14 11 3 8
10 12 16 9 5 -3 10 -1 10 4 0 6 5 11 11 11 7 0 18 8 26 18 10 11 12 12 8 2 -6
-13 -5 -13 7 0 7 8 25 21 41 29 15 8 27 18 27 23 0 4 7 8 15 8 9 0 18 7 21 15
4 8 12 15 18 15 7 0 22 9 34 20 12 12 22 17 22 13 0 -4 6 1 13 12 8 10 19 15
26 11 6 -4 10 -4 9 1 -2 4 0 9 5 10 4 2 20 14 35 28 15 14 30 25 34 25 4 0 21
13 38 30 16 16 30 27 30 23 0 -3 12 6 26 20 15 15 30 24 34 22 5 -3 11 4 15
15 4 11 10 18 15 15 4 -3 27 14 50 38 24 23 45 42 49 42 6 -1 57 43 103 88 15
15 28 26 28 23 0 -3 27 21 61 52 80 74 280 272 276 272 -2 0 22 26 52 59 31
32 70 76 86 97 17 21 42 51 57 68 15 16 25 33 22 38 -3 5 -1 7 4 6 6 -2 29 22
51 52 22 30 51 68 63 84 13 16 22 31 20 33 -2 3 8 15 22 28 14 13 26 27 26 31
0 3 13 23 30 44 16 20 27 40 23 44 -3 3 -1 6 5 6 6 0 19 16 28 35 9 19 21 35
26 35 5 0 7 4 4 9 -4 5 -2 11 3 13 5 1 11 9 13 17 2 8 11 23 21 33 9 10 17 25
17 33 0 8 4 15 8 15 10 0 45 60 35 60 -4 0 0 5 10 11 9 6 15 14 12 19 -3 5 0
12 5 15 11 7 27 41 28 59 0 5 4 12 9 15 13 8 131 251 135 276 2 11 9 26 16 33
6 7 12 20 12 28 0 8 9 33 20 56 11 22 17 44 15 49 -3 4 3 12 12 18 10 6 14 11
9 11 -5 0 -4 6 2 13 7 8 8 18 1 27 -9 13 -9 13 -7 0z"/>
<path d="M19588 14615 c-3 -3 -56 -8 -119 -11 -158 -7 -163 -8 -171 -19 -5 -6
-8 -5 -8 4 0 8 -6 11 -17 6 -10 -3 -43 -8 -73 -11 -30 -2 -71 -7 -90 -10 -19
-3 -46 -5 -59 -5 -14 1 -28 -5 -33 -11 -6 -10 -8 -10 -8 1 0 10 -3 11 -14 2
-10 -9 -16 -9 -21 -1 -5 8 -11 6 -19 -6 -10 -12 -15 -14 -20 -5 -6 9 -11 9
-22 0 -11 -9 -14 -9 -14 0 0 7 -5 9 -12 4 -15 -9 -30 -12 -79 -16 -19 -2 -40
-7 -46 -10 -6 -4 -18 -4 -27 -1 -9 3 -16 2 -16 -2 0 -5 -12 -10 -27 -10 -16
-1 -46 -5 -68 -9 -22 -4 -47 -9 -55 -10 -8 -1 -23 -6 -32 -10 -10 -4 -25 -5
-33 -1 -8 3 -15 1 -15 -5 0 -6 -6 -9 -14 -6 -8 3 -17 3 -20 -1 -4 -3 -14 -7
-24 -9 -9 -2 -28 -5 -42 -7 -14 -3 -45 -10 -70 -17 -25 -6 -54 -13 -65 -14
-11 -2 -20 -4 -20 -5 0 -3 -85 -22 -102 -23 -7 0 -13 -4 -13 -8 0 -5 -7 -5
-17 -2 -9 4 -14 2 -11 -3 4 -5 -8 -10 -25 -12 -68 -5 -76 -6 -71 -14 5 -7 -1
-9 -38 -12 -7 -1 -16 -5 -20 -11 -5 -6 -8 -4 -8 5 0 12 -2 12 -8 2 -5 -7 -21
-15 -37 -18 -15 -3 -36 -9 -46 -14 -10 -6 -27 -10 -38 -10 -12 0 -21 -4 -21
-9 0 -6 -9 -8 -20 -6 -11 2 -25 -2 -32 -8 -7 -7 -24 -14 -38 -15 -14 -2 -31
-9 -37 -14 -7 -6 -13 -7 -13 -3 0 4 -7 2 -15 -5 -8 -7 -15 -9 -15 -5 0 4 -7 2
-15 -5 -8 -6 -19 -9 -25 -5 -5 3 -10 1 -10 -5 0 -6 -4 -9 -9 -5 -5 3 -13 0
-16 -6 -4 -5 -13 -8 -21 -5 -8 3 -14 1 -14 -5 0 -6 -4 -7 -10 -4 -5 3 -10 1
-10 -4 0 -6 -3 -10 -7 -10 -21 4 -72 -15 -66 -24 3 -6 1 -7 -5 -3 -6 4 -29 -3
-52 -14 -22 -11 -40 -18 -40 -15 0 3 -11 -2 -25 -11 -14 -9 -25 -13 -25 -10 0
4 -11 -1 -25 -10 -14 -9 -25 -14 -25 -10 0 3 -16 -3 -37 -14 -20 -10 -40 -17
-44 -15 -4 3 -9 -2 -13 -10 -3 -8 -11 -15 -18 -15 -9 0 -8 3 2 10 9 6 10 10 3
10 -6 0 -15 -5 -18 -11 -8 -11 -55 -33 -67 -31 -5 1 -8 -3 -8 -9 0 -5 -4 -8
-9 -4 -5 3 -12 1 -16 -5 -4 -6 -11 -8 -16 -5 -5 4 -9 1 -9 -5 0 -7 -7 -10 -15
-6 -8 3 -15 1 -15 -4 0 -9 -30 -22 -41 -17 -3 1 -13 -6 -23 -15 -10 -10 -23
-18 -30 -18 -17 0 -76 -29 -100 -49 -16 -13 -18 -13 -12 -1 4 8 0 6 -8 -4 -12
-15 -16 -16 -16 -5 -1 10 -3 9 -11 -4 -6 -9 -14 -15 -20 -12 -5 4 -9 1 -9 -6
0 -7 -3 -10 -6 -6 -3 3 -21 -3 -40 -14 -19 -10 -41 -19 -50 -19 -8 0 -17 -6
-20 -14 -3 -8 -11 -13 -19 -10 -7 3 -21 -3 -30 -13 -10 -10 -20 -17 -22 -15
-2 1 -19 -5 -39 -13 -20 -8 -40 -15 -45 -15 -5 0 -9 -5 -9 -12 0 -6 -3 -8 -6
-5 -4 3 -16 1 -28 -5 -11 -7 -24 -11 -28 -10 -5 1 -8 -3 -8 -9 0 -6 -6 -9 -13
-6 -8 3 -20 -3 -27 -14 -11 -14 -16 -15 -22 -6 -5 8 -8 6 -8 -7 0 -16 -2 -17
-17 -5 -9 8 -14 9 -10 2 5 -7 -4 -14 -23 -18 -17 -4 -28 -11 -24 -16 3 -5 -4
-9 -15 -9 -11 0 -36 -9 -55 -21 -20 -12 -36 -18 -36 -14 0 3 -7 -1 -16 -10 -9
-9 -22 -14 -29 -11 -8 3 -16 -2 -19 -10 -3 -8 -14 -14 -25 -14 -11 0 -23 -5
-26 -11 -4 -5 -12 -8 -18 -6 -7 2 -17 -2 -22 -10 -6 -8 -20 -15 -32 -16 -13 0
-25 -7 -28 -15 -3 -7 -9 -11 -14 -7 -5 3 -12 1 -16 -5 -4 -6 -11 -8 -16 -5 -5
4 -9 1 -9 -4 0 -6 -8 -11 -19 -11 -10 0 -24 -7 -31 -15 -7 -8 -16 -13 -20 -10
-5 3 -11 1 -15 -5 -4 -6 -11 -8 -16 -5 -5 4 -9 2 -9 -3 0 -5 -10 -13 -22 -17
-13 -4 -25 -8 -28 -10 -3 -1 -21 -9 -40 -17 -19 -9 -39 -14 -44 -11 -5 4 -6 2
-3 -4 7 -12 -40 -36 -54 -28 -5 4 -9 3 -9 -2 0 -9 -101 -58 -112 -55 -5 1 -8
-3 -8 -9 0 -6 -7 -9 -15 -5 -8 3 -15 1 -15 -5 0 -6 -4 -8 -9 -5 -5 3 -12 -1
-15 -10 -4 -9 -9 -14 -13 -10 -3 3 -15 -2 -26 -11 -11 -10 -17 -12 -13 -5 11
19 -1 14 -25 -10 -12 -13 -19 -16 -15 -8 6 12 5 12 -6 -1 -7 -9 -18 -14 -24
-12 -7 2 -18 -2 -25 -10 -8 -7 -20 -12 -27 -9 -6 2 -12 -1 -12 -7 0 -6 -6 -11
-14 -11 -8 0 -40 -14 -71 -31 -31 -17 -59 -28 -62 -25 -3 3 -12 -2 -20 -12
-10 -11 -12 -12 -8 -2 4 8 -1 6 -10 -5 -9 -11 -19 -19 -23 -19 -4 1 -18 -3
-32 -9 -14 -5 -32 -11 -40 -13 -8 -2 -16 -8 -18 -13 -2 -6 -9 -11 -16 -11 -7
0 -32 -10 -57 -22 -24 -12 -46 -23 -49 -23 -24 -7 -87 -40 -92 -49 -4 -6 -8
-8 -8 -3 0 4 -15 0 -32 -10 -18 -9 -39 -16 -46 -15 -7 2 -15 -4 -18 -12 -3 -9
-10 -14 -14 -11 -5 3 -11 1 -15 -5 -4 -6 -11 -8 -16 -5 -5 4 -9 1 -9 -4 0 -6
-6 -11 -13 -11 -6 0 -33 -11 -58 -25 -26 -13 -49 -21 -53 -18 -3 4 -6 1 -6 -6
0 -8 -7 -11 -15 -7 -8 3 -15 1 -15 -4 0 -6 -6 -10 -14 -10 -8 0 -16 -5 -18
-10 -2 -6 -13 -12 -25 -14 -12 -3 -32 -10 -45 -17 -13 -7 -26 -12 -30 -11 -5
1 -8 -3 -8 -8 0 -5 -3 -9 -7 -8 -5 1 -18 -3 -29 -10 -12 -6 -24 -8 -28 -5 -3
3 -6 1 -6 -6 0 -7 -4 -9 -10 -6 -5 3 -10 1 -10 -5 0 -6 -4 -8 -10 -5 -5 3 -10
1 -10 -4 0 -6 -4 -11 -10 -11 -5 0 -38 -13 -72 -29 -35 -15 -73 -31 -86 -35
-12 -4 -20 -11 -18 -15 3 -4 -1 -8 -9 -9 -8 -1 -22 -3 -30 -4 -8 -1 -15 -5
-15 -10 0 -5 -4 -6 -10 -3 -5 3 -10 1 -10 -4 0 -6 -9 -11 -19 -11 -11 0 -21
-4 -23 -10 -2 -5 -13 -11 -26 -13 -12 -2 -28 -9 -34 -15 -7 -7 -18 -12 -25
-12 -7 0 -13 -5 -13 -11 0 -5 -4 -8 -9 -5 -5 3 -39 -9 -75 -28 -36 -19 -66
-32 -66 -30 0 2 -16 -5 -35 -16 -20 -11 -42 -20 -50 -20 -8 0 -15 -4 -15 -10
0 -5 -9 -10 -20 -10 -11 0 -20 -4 -20 -10 0 -5 -3 -9 -7 -8 -15 4 -53 -13 -53
-23 0 -6 -4 -8 -9 -4 -5 3 -12 1 -16 -5 -4 -6 -11 -8 -16 -5 -5 4 -9 1 -9 -5
0 -6 -4 -8 -10 -5 -5 3 -10 1 -10 -6 0 -7 -3 -10 -6 -6 -3 3 -27 -6 -54 -19
-26 -13 -53 -24 -59 -24 -6 0 -11 -4 -11 -10 0 -5 -9 -10 -20 -10 -11 0 -20
-5 -20 -11 0 -5 -4 -8 -9 -4 -5 3 -12 1 -16 -5 -4 -6 -10 -8 -15 -5 -5 3 -13
-3 -19 -12 -8 -14 -11 -15 -11 -3 0 12 -3 11 -11 -3 -6 -9 -14 -15 -20 -12 -5
4 -9 2 -9 -4 0 -6 -7 -8 -15 -5 -8 4 -15 1 -15 -7 0 -7 -3 -10 -6 -6 -4 3 -13
-1 -21 -9 -8 -8 -19 -12 -24 -9 -5 4 -9 1 -9 -4 0 -6 -6 -11 -12 -11 -7 0 -35
-11 -62 -25 -27 -14 -55 -25 -63 -25 -7 0 -13 -3 -13 -7 0 -5 -11 -13 -25 -20
-19 -8 -23 -8 -18 0 3 7 -3 4 -14 -6 -11 -9 -23 -14 -26 -11 -4 4 -9 -1 -13
-10 -3 -9 -10 -14 -14 -11 -5 3 -23 -3 -41 -14 -18 -11 -36 -18 -41 -15 -4 3
-8 0 -8 -5 0 -6 -5 -11 -11 -11 -6 0 -33 -11 -60 -25 -27 -13 -49 -21 -49 -17
0 4 -4 1 -9 -7 -5 -8 -19 -16 -31 -18 -11 -2 -32 -10 -45 -19 -14 -9 -31 -14
-40 -11 -8 4 -17 1 -21 -5 -5 -7 -2 -8 6 -3 9 6 11 4 5 -4 -4 -7 -16 -11 -26
-8 -11 3 -19 1 -19 -5 0 -5 -4 -6 -10 -3 -5 3 -10 1 -10 -5 0 -6 -4 -8 -10 -5
-5 3 -10 2 -10 -4 0 -5 -9 -8 -20 -6 -12 2 -23 -1 -26 -8 -2 -7 -14 -13 -27
-14 -49 -5 -62 -8 -69 -17 -3 -5 -20 -10 -37 -11 -17 -1 -34 -4 -37 -8 -4 -4
-16 -7 -26 -7 -11 0 -17 -3 -15 -7 3 -5 -13 -9 -35 -10 -21 -1 -45 -6 -51 -12
-8 -6 -18 -6 -27 -1 -9 5 -19 5 -27 -2 -7 -6 -13 -7 -13 -3 0 4 -7 2 -15 -5
-12 -10 -15 -10 -15 1 0 9 -3 10 -8 4 -6 -10 -36 -15 -94 -18 -10 -1 -18 -5
-18 -9 0 -5 -9 -4 -19 2 -14 7 -22 7 -27 -2 -5 -7 -3 -8 6 -3 8 5 11 4 6 -3
-9 -15 -38 -3 -29 12 3 6 -3 2 -15 -8 -12 -11 -22 -15 -22 -9 0 5 -7 10 -15
10 -8 0 -15 -3 -15 -7 0 -3 -16 -5 -35 -5 -19 1 -40 -2 -47 -6 -6 -4 -20 -3
-30 2 -13 7 -18 6 -18 -3 0 -9 -3 -9 -10 2 -5 8 -10 10 -10 4 0 -11 -62 -10
-80 1 -6 3 -10 1 -10 -5 0 -6 -4 -9 -8 -6 -5 3 -39 6 -75 8 -37 1 -67 7 -67
13 0 7 -3 7 -8 0 -9 -13 -42 -15 -42 -3 0 6 -6 5 -15 -2 -8 -7 -15 -8 -15 -3
0 8 -35 13 -102 16 -10 1 -18 5 -18 10 0 4 -5 5 -10 2 -6 -4 -17 -1 -25 5 -12
10 -15 10 -15 0 0 -9 -8 -7 -26 5 -18 11 -24 13 -19 4 6 -11 5 -12 -6 -1 -7 6
-26 12 -41 12 -16 0 -36 4 -46 9 -9 5 -48 20 -87 32 -38 13 -76 28 -84 33 -7
6 -19 11 -25 12 -24 3 -56 17 -56 25 0 5 -4 9 -9 9 -5 0 -26 8 -47 17 -22 9
-42 16 -47 15 -4 -1 -6 3 -5 9 2 6 -5 13 -15 14 -9 2 -31 15 -49 30 -18 15
-42 31 -55 36 -13 5 -23 15 -23 24 0 8 -8 15 -18 15 -10 0 -24 9 -32 20 -8 11
-18 20 -22 20 -5 0 -25 18 -47 40 -21 22 -44 40 -50 40 -7 0 -10 4 -7 9 3 4
-10 21 -29 37 -19 16 -35 32 -35 37 0 4 -11 20 -25 35 -14 15 -32 34 -40 43
-8 9 -15 21 -15 27 0 7 -4 12 -10 12 -5 0 -10 6 -10 14 0 8 -7 17 -16 20 -9 4
-14 9 -11 12 3 4 1 12 -6 20 -29 32 -37 44 -32 44 3 0 -5 17 -19 37 -14 20
-23 40 -20 45 3 4 1 8 -5 8 -5 0 3 30 19 68 37 88 45 109 53 145 1 6 6 18 10
25 5 6 6 12 3 12 -2 0 2 24 10 53 7 28 14 66 14 84 0 17 6 34 13 36 7 3 8 6 1
6 -8 1 -9 14 -4 39 4 21 3 49 -2 61 -4 13 -4 20 2 16 5 -3 8 4 7 15 -1 11 -4
20 -7 20 -8 0 -5 44 4 58 4 8 2 10 -8 6 -18 -7 -30 -34 -14 -34 7 0 6 -5 -2
-15 -6 -8 -9 -19 -5 -25 3 -5 2 -10 -2 -10 -5 0 -10 -10 -11 -22 -3 -49 -11
-83 -21 -86 -5 -2 -7 -10 -4 -18 3 -8 1 -20 -5 -27 -6 -6 -10 -14 -10 -17 3
-16 -40 -129 -73 -191 -10 -20 -16 -39 -12 -43 3 -3 1 -6 -5 -6 -7 0 -12 -7
-12 -15 0 -8 -4 -15 -10 -15 -5 0 -10 -5 -10 -11 0 -5 5 -7 12 -3 7 4 8 3 4
-4 -4 -7 -15 -12 -24 -12 -13 0 -14 -2 -4 -9 11 -6 10 -10 -3 -15 -10 -3 -15
-12 -11 -21 3 -9 0 -15 -10 -15 -8 0 -13 -4 -10 -9 3 -5 -1 -14 -9 -21 -8 -7
-15 -18 -15 -24 0 -6 -9 -19 -20 -29 -12 -10 -18 -22 -15 -27 3 -5 -4 -14 -15
-20 -11 -6 -20 -18 -20 -26 0 -8 -4 -12 -10 -9 -5 3 -10 0 -10 -7 0 -8 -9 -21
-20 -31 -12 -10 -18 -23 -14 -29 5 -8 2 -9 -10 -5 -9 4 -15 3 -12 -1 3 -5 -17
-32 -44 -61 -28 -30 -50 -58 -50 -64 0 -6 -2 -8 -5 -5 -6 6 -95 -81 -95 -93 0
-5 -9 -9 -21 -9 -11 0 -18 -3 -16 -7 3 -5 -1 -14 -9 -21 -8 -7 -14 -10 -14 -6
0 4 -13 -7 -30 -24 -16 -18 -30 -29 -30 -25 0 3 -13 -7 -29 -23 -38 -37 -52
-49 -79 -63 -13 -7 -19 -17 -16 -23 4 -6 3 -8 -3 -5 -10 6 -59 -25 -75 -48 -4
-5 -8 -6 -8 -2 0 4 -6 3 -12 -3 -47 -39 -63 -50 -79 -55 -11 -4 -19 -10 -19
-15 0 -4 -13 -13 -30 -19 -16 -5 -30 -15 -30 -21 0 -6 -4 -9 -9 -6 -4 3 -19
-3 -31 -14 -12 -11 -31 -22 -41 -25 -11 -4 -16 -11 -13 -17 4 -6 2 -8 -4 -4
-6 3 -13 2 -17 -4 -4 -6 -11 -8 -16 -5 -5 4 -9 2 -9 -2 0 -5 -20 -19 -45 -33
-25 -14 -45 -28 -45 -32 0 -5 -3 -7 -7 -6 -17 4 -53 -14 -47 -24 4 -6 2 -8 -4
-4 -6 3 -16 0 -24 -7 -7 -8 -19 -12 -27 -9 -8 3 -11 0 -7 -7 4 -7 0 -11 -12
-11 -11 0 -23 -7 -26 -16 -4 -10 -2 -13 7 -7 6 4 23 9 37 11 37 5 53 8 75 16
11 5 27 10 35 13 8 3 24 6 35 7 11 0 26 7 33 16 8 8 11 10 7 3 -4 -8 3 -8 22
2 15 8 35 15 44 15 9 0 19 3 23 8 4 4 11 8 14 8 24 5 52 17 52 23 0 16 38 8
51 -11 8 -12 24 -30 37 -41 12 -11 22 -26 22 -32 0 -6 8 -18 18 -27 28 -27 41
-46 36 -51 -3 -3 4 -8 15 -12 12 -3 21 -11 21 -16 0 -6 18 -28 40 -49 21 -20
36 -40 33 -44 -4 -3 -1 -6 5 -6 6 0 34 -22 61 -50 28 -27 55 -50 61 -50 6 0 8
-4 5 -10 -3 -5 0 -10 8 -10 8 0 18 -7 21 -16 3 -8 10 -13 15 -9 5 3 12 -4 16
-15 3 -11 13 -20 20 -20 8 0 25 -11 39 -25 14 -14 29 -25 34 -25 5 0 17 -9 27
-20 10 -11 22 -17 26 -14 5 3 9 0 9 -5 0 -6 7 -11 15 -11 8 0 15 -4 15 -10 0
-5 7 -10 15 -10 8 0 15 -5 15 -11 0 -5 4 -8 9 -5 5 3 12 -1 15 -10 4 -9 13
-14 21 -10 8 3 15 2 15 -2 0 -11 191 -102 213 -102 9 0 17 -5 17 -11 0 -5 4
-8 9 -4 5 3 12 1 16 -5 4 -6 11 -8 16 -5 5 4 9 1 9 -5 0 -7 7 -10 15 -7 8 4
17 2 20 -4 4 -5 11 -7 16 -4 5 4 9 2 9 -2 0 -5 12 -10 27 -11 15 -1 29 -5 32
-10 7 -8 20 -11 56 -14 14 -1 25 -6 25 -10 0 -4 9 -5 20 -3 11 2 20 0 20 -5 0
-4 13 -7 30 -6 16 1 31 -1 32 -5 2 -4 21 -9 43 -12 43 -6 93 -14 140 -23 39
-7 191 -16 280 -18 39 0 73 -5 77 -11 5 -7 8 -6 8 1 0 13 53 14 62 0 5 -8 8
-7 8 1 0 7 19 11 53 11 28 0 54 1 57 2 3 1 23 3 45 5 110 8 230 22 230 25 0 1
79 11 115 13 14 1 27 5 30 9 4 5 69 16 123 21 9 1 17 6 17 12 0 5 5 3 10 -5 7
-12 10 -12 10 -1 0 7 6 11 15 8 8 -4 17 -2 20 3 4 6 17 10 30 10 13 0 27 5 30
10 4 7 13 6 27 -1 15 -8 19 -8 14 0 -4 6 0 11 11 12 19 1 34 4 43 8 5 3 31 9
55 14 8 2 17 6 21 9 3 4 12 4 20 1 8 -3 14 0 14 7 0 6 4 9 10 5 5 -3 24 1 42
8 18 8 35 14 38 15 3 0 12 3 20 5 36 11 105 29 110 29 3 0 14 5 25 11 24 13
105 18 105 7 0 -5 9 -12 21 -15 11 -4 18 -9 15 -13 -3 -3 1 -16 10 -29 12 -19
13 -27 3 -39 -9 -11 -9 -14 2 -14 10 -1 9 -4 -3 -14 -10 -7 -15 -16 -11 -19 3
-4 0 -7 -7 -7 -7 0 -10 -3 -7 -7 7 -6 -44 -34 -68 -38 -5 0 -23 -7 -40 -13
-45 -19 -60 -24 -61 -20 0 2 -8 -3 -17 -11 -10 -7 -17 -10 -17 -6 0 4 -7 2
-15 -5 -9 -7 -18 -10 -21 -7 -4 3 -13 -1 -21 -9 -8 -8 -18 -12 -23 -9 -5 3
-11 1 -15 -5 -4 -6 -11 -8 -16 -5 -5 4 -9 1 -9 -5 0 -6 -4 -9 -9 -5 -5 3 -12
1 -16 -5 -4 -6 -11 -8 -16 -4 -5 3 -15 1 -22 -4 -7 -6 -21 -12 -32 -14 -11 -1
-22 -6 -25 -10 -3 -4 -17 -9 -30 -11 -43 -8 -70 -19 -70 -28 0 -5 -7 -6 -15
-3 -8 3 -20 2 -27 -2 -13 -9 -33 -14 -55 -16 -7 -1 -13 -4 -13 -8 0 -4 -6 -7
-12 -8 -12 0 -28 -4 -80 -18 -13 -3 -35 -8 -50 -11 -16 -3 -28 -9 -28 -14 0
-5 -3 -8 -7 -7 -20 4 -102 -15 -97 -23 3 -5 -2 -6 -10 -3 -9 3 -24 3 -33 -2
-10 -4 -26 -8 -35 -9 -10 -2 -20 -4 -23 -5 -3 -1 -9 -4 -15 -5 -5 -1 -11 -3
-12 -4 -2 -2 -16 -4 -31 -6 -16 -2 -34 -8 -41 -14 -7 -6 -17 -6 -26 -1 -8 5
-19 5 -25 1 -10 -9 -39 -15 -160 -35 -5 -1 -14 -4 -20 -8 -5 -3 -22 -5 -37 -3
-16 2 -28 0 -28 -3 0 -4 -12 -7 -27 -8 -69 -3 -133 -9 -133 -14 0 -3 -12 -5
-27 -4 -16 1 -36 -3 -45 -8 -12 -6 -18 -5 -18 3 0 8 -4 8 -15 -1 -11 -9 -15
-9 -15 -1 0 7 -5 9 -12 4 -7 -4 -49 -8 -93 -10 -44 -2 -86 -5 -92 -8 -7 -2
-13 1 -13 8 0 8 -4 7 -11 -3 -8 -12 -12 -12 -16 -2 -4 10 -8 10 -19 1 -11 -9
-14 -8 -14 2 0 11 -3 11 -11 -1 -8 -11 -12 -12 -16 -2 -2 6 -9 9 -15 6 -13 -8
-88 -11 -88 -4 0 3 -17 4 -37 4 -21 -1 -43 3 -50 8 -7 6 -14 5 -18 -2 -5 -8
-11 -8 -21 1 -11 9 -14 8 -14 -2 0 -9 -3 -10 -8 -4 -4 6 -27 11 -52 13 -43 3
-85 9 -85 12 0 1 -20 3 -45 5 -25 3 -46 9 -48 14 -2 6 -12 7 -26 1 -15 -5 -27
-5 -35 3 -6 6 -20 12 -30 14 -11 1 -38 9 -60 17 -22 7 -38 9 -35 4 4 -6 -5 -3
-18 6 -14 9 -28 13 -31 9 -4 -3 -7 -1 -7 5 0 7 -5 12 -11 12 -5 0 -7 -6 -3
-12 4 -7 -2 -5 -14 5 -11 11 -25 16 -31 13 -5 -3 -11 -1 -13 5 -2 6 -15 12
-30 12 -14 1 -25 4 -23 7 3 6 -14 14 -85 41 -19 7 -38 17 -41 21 -3 5 -16 10
-27 11 -12 1 -22 4 -22 8 0 4 -8 10 -18 13 -16 5 -113 64 -137 83 -5 4 -22 14
-37 22 -16 8 -28 18 -28 23 0 4 -5 8 -11 8 -6 0 -16 6 -23 13 -7 6 -29 24 -48
39 -59 47 -87 76 -80 83 4 4 2 5 -4 3 -10 -3 -114 85 -114 96 0 2 -17 22 -37
45 -43 45 -69 77 -98 116 -11 16 -26 34 -33 42 -7 7 -10 13 -5 13 4 0 0 5 -9
11 -10 5 -18 17 -18 24 0 8 -4 15 -10 15 -5 0 -10 7 -10 15 0 8 -4 15 -10 15
-5 0 -10 7 -10 15 0 8 -4 15 -10 15 -5 0 -10 5 -10 11 0 6 -10 25 -22 42 -13
18 -23 34 -24 37 -3 19 -25 58 -38 69 -9 7 -16 22 -16 32 0 11 -4 19 -10 19
-5 0 -10 7 -10 15 0 8 -4 15 -10 15 -5 0 -7 6 -4 13 3 8 -2 20 -11 27 -8 7
-15 18 -15 24 0 7 -9 31 -20 54 -11 22 -20 46 -20 52 0 5 -5 10 -12 10 -6 0
-9 3 -5 6 3 3 -5 31 -19 61 -13 31 -24 64 -24 74 0 11 -4 19 -8 19 -5 0 -9 7
-10 15 -1 8 -3 22 -4 30 -1 8 -5 15 -10 15 -5 0 -6 5 -3 10 3 6 1 10 -5 10 -6
0 -8 5 -4 11 3 6 0 15 -7 20 -12 7 -11 9 1 9 11 0 12 3 3 8 -6 4 -14 20 -17
36 -3 15 -12 39 -20 52 -11 16 -12 25 -5 30 8 5 8 8 0 13 -6 4 -13 18 -15 31
-2 14 -5 25 -6 25 -1 0 -3 11 -6 25 -2 14 -7 32 -11 40 -3 8 -7 22 -8 30 -2 8
-6 26 -10 40 -9 38 -16 73 -18 93 -1 9 -4 17 -7 17 -3 0 -7 12 -8 28 -1 15 -5
38 -8 52 -3 14 -7 39 -10 55 -8 54 -9 60 -17 73 -5 7 -3 12 5 12 9 0 9 3 2 8
-15 10 -24 52 -12 52 6 0 4 8 -5 18 -13 14 -14 21 -5 30 7 7 8 12 2 12 -5 0
-10 17 -12 38 -4 52 -7 70 -14 78 -4 3 -3 17 3 31 5 13 5 22 1 19 -5 -3 -10 9
-11 27 -1 18 -4 48 -6 67 -7 47 -13 115 -16 170 -1 25 -4 49 -7 53 -2 5 -6 48
-8 95 -2 48 -6 123 -9 167 -3 44 -7 155 -8 247 -1 93 -6 168 -10 168 -5 0 -5
4 -2 10 7 12 12 420 5 425 -3 2 -14 -3 -25 -11 -10 -8 -16 -14 -13 -14 4 0 -6
-13 -20 -29 -46 -48 -70 -80 -65 -85 4 -4 -25 -64 -37 -76 -3 -3 -6 -11 -7
-17 -2 -7 -4 -19 -5 -25 -2 -7 -7 -16 -11 -19 -4 -3 -10 -18 -13 -34 -3 -15
-9 -36 -15 -47 -5 -10 -7 -18 -3 -18 3 0 0 -10 -8 -22 -8 -13 -13 -35 -12 -50
2 -16 -1 -28 -6 -28 -5 0 -7 -9 -5 -20 2 -11 0 -22 -5 -25 -5 -3 -7 -17 -4
-30 3 -16 0 -25 -8 -25 -9 0 -8 -3 2 -10 12 -7 12 -10 1 -10 -7 0 -11 -6 -8
-15 4 -8 2 -17 -4 -21 -6 -4 -5 -12 3 -22 10 -12 10 -14 1 -8 -9 5 -13 -2 -14
-26 -3 -79 -6 -104 -13 -116 -4 -7 -2 -12 6 -12 9 0 9 -3 2 -8 -6 -4 -10 -17
-9 -29 1 -13 -1 -23 -4 -23 -9 0 -7 -547 1 -556 4 -4 3 -13 -3 -21 -8 -9 -8
-13 -1 -13 6 0 9 -6 6 -13 -3 -8 0 -26 5 -40 6 -15 7 -27 2 -27 -4 0 -8 -7 -8
-15 0 -8 4 -15 8 -15 4 0 6 -13 5 -30 -1 -16 1 -30 5 -30 4 0 4 -13 -1 -30 -5
-19 -5 -30 1 -30 6 0 7 -4 4 -10 -3 -5 -3 -10 2 -10 4 0 8 -21 9 -46 0 -28 6
-49 15 -55 9 -5 10 -9 2 -9 -6 0 -11 -9 -10 -20 1 -11 5 -20 10 -20 5 0 4 -6
-2 -14 -9 -10 -8 -16 3 -25 8 -7 12 -19 9 -28 -3 -8 0 -19 8 -24 11 -6 11 -9
1 -9 -10 0 -10 -5 -2 -20 6 -11 8 -20 4 -20 -3 0 -1 -6 5 -14 9 -11 9 -15 -1
-19 -11 -4 -10 -6 0 -6 7 -1 10 -5 7 -11 -3 -5 -1 -10 6 -10 8 0 8 -4 -1 -15
-9 -10 -9 -15 -1 -15 6 0 11 -11 11 -25 0 -14 5 -25 11 -25 8 0 8 -4 0 -14 -7
-9 -8 -15 -2 -18 5 -1 12 -16 15 -33 2 -16 5 -30 6 -30 1 0 3 -7 5 -15 1 -8 9
-35 16 -60 7 -25 14 -49 15 -55 0 -5 6 -23 13 -38 6 -16 9 -33 5 -38 -3 -5 0
-9 5 -9 6 0 11 -11 11 -25 0 -14 5 -25 11 -25 6 0 9 -7 5 -15 -3 -8 -1 -15 3
-15 5 0 7 -10 4 -22 -4 -19 -3 -20 7 -8 10 12 11 11 7 -7 -3 -13 -1 -23 5 -23
5 0 7 -4 3 -9 -3 -5 -1 -12 5 -16 5 -3 10 -13 10 -20 0 -8 12 -40 26 -72 29
-64 45 -101 65 -150 8 -18 18 -33 22 -33 5 0 5 -4 2 -10 -3 -5 -2 -10 4 -10 6
0 8 -7 5 -15 -4 -8 -1 -15 5 -15 6 0 11 -7 11 -16 0 -9 8 -23 18 -31 11 -10
12 -12 2 -8 -10 4 -9 2 2 -8 10 -8 15 -17 11 -20 -3 -4 -1 -7 5 -7 7 0 12 -3
11 -7 -2 -13 13 -53 20 -53 3 0 17 -21 31 -47 13 -27 32 -55 42 -64 21 -19 24
-33 6 -24 -7 4 -4 -2 7 -12 27 -25 65 -80 65 -93 0 -5 5 -10 10 -10 6 0 10 -5
10 -10 0 -6 10 -22 23 -35 38 -41 48 -55 40 -55 -4 0 0 -5 10 -11 9 -6 14 -15
11 -21 -4 -7 -2 -8 4 -4 6 4 16 -4 23 -16 17 -32 35 -48 44 -40 5 4 5 2 1 -5
-4 -7 24 -43 69 -87 41 -42 71 -76 67 -77 -4 0 3 -4 16 -10 13 -5 20 -13 17
-19 -4 -6 -2 -9 3 -8 5 2 28 -14 50 -34 23 -21 46 -38 52 -38 5 0 10 -7 10
-16 0 -8 5 -12 10 -9 6 3 10 -1 10 -9 0 -10 6 -13 17 -9 11 4 14 3 9 -5 -4 -7
-2 -12 3 -12 6 0 20 -8 30 -17 33 -30 50 -43 56 -43 6 0 23 -13 55 -42 10 -9
20 -14 23 -12 2 2 10 -2 17 -11 7 -8 19 -15 27 -15 7 0 16 -6 19 -14 3 -9 12
-12 21 -9 10 4 14 2 10 -4 -3 -5 9 -16 28 -23 19 -8 35 -17 35 -22 0 -4 7 -8
15 -8 8 0 37 -14 65 -30 28 -16 55 -30 61 -30 5 0 21 -7 34 -16 13 -9 28 -13
34 -10 5 3 12 -1 15 -10 3 -8 10 -12 16 -9 5 3 10 1 10 -4 0 -6 3 -10 8 -10 4
1 10 0 15 -1 4 -1 10 -3 15 -5 7 -2 18 -6 77 -28 17 -7 32 -12 35 -12 3 -1 35
-11 72 -23 37 -12 71 -21 75 -20 5 1 18 -3 31 -10 12 -7 27 -10 32 -7 5 3 11
1 15 -5 3 -5 19 -10 35 -10 15 0 31 -6 33 -12 4 -10 6 -10 6 0 1 8 6 10 13 6
7 -5 33 -10 58 -12 25 -2 48 -8 51 -14 4 -6 8 -6 11 3 3 8 9 10 19 3 8 -5 34
-9 59 -9 25 -1 51 -4 58 -9 7 -4 12 -2 12 6 0 8 3 9 8 3 8 -12 62 -13 78 -2 7
4 17 0 24 -8 7 -8 17 -12 24 -8 17 11 96 11 89 0 -4 -6 -1 -7 8 -1 23 14 49
15 49 1 0 -8 3 -8 9 2 5 8 19 12 35 9 14 -3 26 -2 26 1 0 3 23 5 50 4 37 -1
48 2 43 10 -5 9 -3 9 8 2 16 -12 68 -13 87 -1 7 4 12 4 12 0 0 -3 8 0 17 7 11
10 14 10 9 2 -4 -7 -2 -13 3 -13 6 0 11 3 11 8 0 4 21 7 48 7 26 -1 52 2 57 4
12 7 30 10 73 13 17 1 32 5 32 8 0 3 17 7 38 8 47 5 77 9 77 12 0 4 60 13 90
14 17 1 33 5 36 9 3 4 19 10 35 13 16 3 47 10 69 15 22 6 49 12 60 14 11 2 21
4 23 5 2 3 6 4 47 14 17 4 41 12 55 17 14 4 38 11 54 13 16 3 33 11 38 18 6
10 8 10 8 -2 0 -9 3 -11 8 -5 8 11 27 18 55 19 9 0 17 4 17 9 0 5 7 7 15 3 8
-3 15 -1 15 5 0 6 5 7 10 4 6 -3 10 -1 10 5 0 6 4 9 9 5 5 -3 12 -1 16 4 3 6
12 8 20 4 8 -3 15 0 15 7 0 6 4 9 10 5 5 -3 17 -1 27 4 23 12 53 23 77 28 11
2 25 8 33 14 7 6 13 8 13 4 0 -4 6 -2 13 4 8 6 16 8 20 5 3 -3 17 2 31 11 14
9 29 14 35 11 5 -3 11 1 15 9 3 8 12 12 21 9 8 -3 15 -1 15 6 0 6 5 8 10 5 6
-3 10 -1 10 5 0 6 4 9 9 6 5 -3 23 1 40 10 18 9 37 17 44 18 11 3 37 13 97 39
14 6 27 11 30 11 3 1 30 13 60 28 30 14 64 28 75 30 11 2 23 8 27 13 4 6 11
10 15 11 4 0 21 6 36 12 16 7 33 12 38 12 5 0 9 5 9 10 0 6 3 9 8 8 4 -1 21 5
37 12 17 7 33 13 38 12 4 -1 7 3 7 9 0 5 5 7 10 4 6 -3 13 0 16 9 3 8 12 12
19 10 7 -3 22 3 33 14 11 11 22 18 25 16 3 -3 20 4 40 15 19 11 38 17 41 14 3
-4 6 -1 6 5 0 6 14 13 30 17 17 4 30 10 30 15 0 8 59 34 73 31 4 0 7 3 7 8 0
8 37 24 53 22 4 -1 7 3 7 9 0 5 7 10 15 10 8 0 15 5 15 11 0 6 7 9 15 5 8 -3
15 -1 15 4 0 6 5 10 11 10 7 0 18 8 26 18 8 9 12 12 9 5 -5 -8 0 -8 19 0 14 7
25 16 25 20 0 5 5 5 10 2 6 -3 10 -1 10 4 0 6 9 11 20 11 11 0 20 4 20 9 0 5
10 13 23 17 12 3 34 15 50 26 15 11 27 16 27 11 0 -4 5 0 11 10 6 9 14 15 20
12 5 -4 9 -1 9 5 0 6 5 8 10 5 6 -3 10 -1 10 5 0 6 5 8 10 5 6 -3 10 -1 10 4
0 6 7 11 16 11 8 0 31 12 49 26 19 14 39 23 45 19 5 -3 10 -2 10 3 0 9 94 69
125 81 6 2 19 11 29 20 16 13 18 13 11 1 -5 -8 4 -2 20 13 21 21 30 24 37 15
6 -10 8 -8 8 5 0 9 7 17 15 17 8 0 15 5 15 11 0 5 4 8 8 5 5 -3 18 4 30 14 12
11 24 20 28 20 3 0 18 9 34 20 15 11 30 17 34 13 3 -3 6 -1 6 6 0 7 5 9 10 6
6 -3 10 1 10 10 0 9 5 13 10 10 6 -3 10 -1 10 5 0 6 4 9 9 6 5 -3 14 1 21 9 7
8 16 12 21 9 5 -3 9 0 9 6 0 6 8 14 18 17 9 4 43 24 74 45 31 21 60 38 63 38
3 0 15 9 27 20 12 10 25 17 30 14 4 -3 8 0 8 5 0 6 7 11 15 11 8 0 15 5 15 11
0 5 4 8 9 5 5 -3 12 1 15 10 3 8 10 12 16 9 5 -3 10 -1 10 4 0 6 5 11 11 11 6
0 17 6 24 13 25 22 40 32 68 46 15 8 27 18 27 23 0 5 4 7 9 4 5 -3 12 1 15 10
3 8 10 13 15 9 6 -3 14 3 20 12 6 10 11 14 11 10 0 -4 10 2 22 13 12 11 28 18
35 16 7 -3 12 -2 10 2 -1 4 2 8 6 9 4 1 14 8 22 15 34 31 54 43 85 51 11 2 28
22 24 28 -2 3 3 6 11 7 8 1 22 3 30 4 8 1 15 7 15 14 0 6 11 15 24 18 14 3 31
12 38 19 13 11 24 18 81 50 12 6 24 14 27 17 4 4 22 15 95 54 10 6 25 17 33
24 7 7 18 9 24 6 7 -4 8 -2 4 4 -6 11 0 14 20 11 4 0 10 3 13 8 9 13 89 63
101 63 5 0 10 3 10 8 0 4 27 22 60 40 33 18 62 37 65 43 4 5 11 7 16 4 5 -4 9
-1 9 4 0 6 7 11 15 11 8 0 15 3 15 8 0 4 10 12 23 18 67 34 87 46 87 55 0 6 5
7 10 4 6 -3 10 -1 10 4 0 6 7 11 15 11 8 0 23 8 33 18 10 10 24 16 30 14 7 -2
12 1 12 6 0 6 18 18 40 28 22 10 40 21 40 25 0 3 14 12 30 19 17 7 30 16 30
21 0 5 7 9 15 9 8 0 23 8 33 18 10 9 25 18 33 20 7 2 17 9 21 15 4 7 8 8 8 2
0 -5 7 -1 15 9 8 11 15 17 15 13 0 -4 21 7 46 23 26 16 51 27 57 23 6 -3 7 -1
3 6 -5 7 4 15 23 22 17 6 31 15 31 21 0 5 5 6 10 3 6 -3 10 -1 10 4 0 6 7 11
15 11 8 0 15 4 15 9 0 10 39 27 53 23 4 -1 7 5 7 14 0 8 5 12 10 9 6 -3 10 -2
10 4 0 6 6 8 14 5 7 -3 16 2 20 11 3 9 10 13 16 10 5 -3 10 -2 10 2 0 5 20 19
45 33 25 14 45 28 45 33 0 4 5 5 10 2 6 -3 10 -1 10 4 0 6 7 11 15 11 9 0 18
7 21 15 4 8 10 13 14 10 5 -3 15 0 22 7 13 12 37 28 83 52 34 19 80 50 86 59
3 5 9 9 12 9 18 0 47 11 47 18 0 10 40 25 55 21 6 -1 7 1 3 5 -10 10 29 37 42
29 6 -4 9 -1 8 6 -2 7 2 13 7 14 6 0 21 8 35 17 95 60 142 88 150 88 6 0 10 5
10 11 0 6 7 9 15 5 8 -3 14 0 12 7 -1 7 5 12 13 12 8 0 26 10 39 22 14 12 28
20 33 17 4 -3 8 0 8 5 0 6 6 11 14 11 8 0 16 3 18 8 2 4 23 18 48 31 25 14 51
31 59 39 7 7 20 11 28 8 8 -3 11 -1 8 4 -3 6 6 15 20 20 16 6 23 14 19 22 -4
7 -3 8 4 4 7 -4 38 11 71 34 33 22 65 40 71 40 6 0 13 7 16 15 4 8 10 12 15 9
5 -3 16 1 24 8 33 30 45 38 45 32 0 -3 7 -1 15 6 8 7 15 10 15 6 0 -3 8 2 19
13 10 10 37 27 59 36 23 10 38 23 35 28 -3 6 -1 7 5 3 13 -8 124 49 114 59 -4
5 -1 5 7 0 8 -4 17 -2 22 6 4 8 13 15 19 15 5 1 14 2 19 3 5 0 17 8 25 17 12
12 16 12 16 2 0 -8 5 -6 11 5 6 9 14 15 20 12 5 -4 9 -1 9 4 0 6 3 10 8 9 4
-1 31 10 60 25 28 15 52 24 52 20 0 -4 7 2 15 13 8 10 15 16 15 12 0 -4 16 1
36 12 19 11 39 18 44 15 5 -3 13 3 19 12 8 13 10 14 11 4 0 -11 4 -10 13 4 8
10 19 15 25 11 7 -4 12 -2 12 3 0 6 6 10 13 8 6 -1 11 3 10 8 -1 6 6 11 15 12
34 3 57 8 62 14 6 7 188 80 206 83 7 1 18 7 26 14 8 6 18 9 21 5 4 -3 17 2 29
13 12 10 18 13 14 7 -4 -7 -2 -13 3 -13 6 0 11 4 11 9 0 5 7 12 16 15 10 4 13
2 8 -7 -4 -6 2 -3 14 7 12 11 22 15 22 10 0 -5 5 -2 10 6 6 10 10 11 10 3 0
-7 5 -13 11 -13 5 0 8 4 5 8 -4 7 82 40 119 46 5 1 17 6 24 11 13 8 28 11 81
16 8 1 21 7 29 13 8 6 24 11 35 12 12 1 34 6 49 12 15 7 31 11 35 10 4 -1 15
2 25 7 10 4 21 5 24 1 4 -3 15 2 26 11 11 10 17 12 12 4 -5 -9 0 -8 17 3 14 9
28 13 31 10 4 -4 12 -2 19 3 7 6 23 9 36 8 12 -1 22 3 22 8 0 5 6 7 14 4 8 -3
17 -3 21 1 4 4 19 8 33 8 15 1 27 3 27 4 0 1 7 3 15 5 8 2 26 7 40 10 14 3 34
8 45 9 18 3 177 34 215 41 8 2 15 4 15 5 0 1 10 3 23 4 12 2 22 -2 22 -8 0 -7
4 -6 8 2 5 6 27 13 50 15 23 1 42 5 42 8 0 3 16 4 35 3 19 -2 35 1 35 5 0 5
11 6 25 3 13 -2 33 -1 42 3 27 12 53 13 53 3 0 -5 6 -6 13 -1 6 4 20 6 31 4
13 -2 16 1 10 11 -6 11 -5 11 8 0 9 -7 19 -9 22 -4 3 5 21 7 40 6 20 -2 38 1
42 7 4 7 10 6 19 -1 7 -6 15 -7 18 -3 3 4 39 8 81 7 47 0 76 4 76 10 0 6 5 4
10 -4 5 -8 10 -10 10 -5 0 6 24 10 52 10 29 0 56 -4 60 -10 5 -7 8 -7 8 0 0 6
25 10 57 9 32 -1 64 4 72 10 9 7 12 7 9 1 -5 -7 38 -11 128 -13 74 0 139 -4
144 -7 6 -3 10 -2 10 4 0 7 8 7 25 1 14 -5 32 -7 42 -3 12 5 14 3 8 -8 -7 -11
-6 -12 6 -2 11 9 19 9 26 2 7 -7 13 -7 17 -1 3 6 20 7 40 2 19 -4 37 -5 40 -2
3 2 12 -1 21 -8 12 -10 15 -10 15 0 0 8 6 10 18 5 9 -4 35 -8 57 -8 22 -1 43
-6 47 -12 5 -6 8 -5 8 3 0 8 5 10 12 5 14 -8 72 -16 135 -17 23 0 40 -3 38 -7
-4 -5 17 -8 98 -12 15 -1 27 -5 27 -8 0 -3 6 -6 13 -6 37 -3 104 -13 200 -33
67 -14 69 -13 65 16 -2 20 -12 29 -40 39 -21 7 -38 10 -38 8 0 -3 -7 0 -15 7
-9 7 -18 10 -22 7 -3 -4 -12 -2 -20 4 -7 6 -13 9 -13 5 0 -4 -13 0 -30 9 -16
9 -30 13 -30 9 0 -4 -8 0 -17 7 -14 12 -15 12 -9 0 5 -8 -3 -6 -20 5 -21 14
-26 15 -19 4 7 -12 6 -13 -6 -3 -8 6 -27 14 -42 17 -15 2 -32 8 -38 12 -6 3
-23 8 -38 10 -25 3 -99 21 -131 32 -8 3 -22 6 -30 7 -8 1 -31 6 -50 10 -19 4
-42 9 -50 10 -8 1 -28 6 -45 10 -16 5 -39 9 -50 9 -11 1 -24 4 -30 7 -5 3 -26
6 -45 8 -19 2 -42 7 -51 12 -10 5 -20 4 -27 -3 -9 -9 -12 -9 -12 0 0 7 -16 12
-41 12 -27 0 -38 4 -33 11 5 8 1 8 -14 0 -14 -8 -23 -8 -27 -1 -5 8 -11 8 -19
1 -8 -7 -16 -7 -22 -1 -6 6 -27 11 -47 12 -20 1 -37 5 -37 9 0 5 -11 4 -24 -1
-17 -6 -26 -5 -30 3 -3 9 -7 8 -14 -2 -7 -9 -11 -10 -13 -2 -3 7 -34 13 -82
14 -42 1 -77 4 -77 7 0 3 -15 6 -32 6 -75 2 -284 16 -290 21 -5 2 -8 -1 -8 -7
0 -6 -4 -8 -10 -5 -18 11 -140 13 -133 2 4 -6 1 -7 -8 -1 -18 11 -249 12 -249
0 0 -5 -6 -3 -13 3 -8 6 -16 9 -19 6z m-10024 -2663 c-4 -6 71 -76 79 -74 4 1
7 -2 7 -8 0 -10 56 -70 65 -70 4 0 24 -18 46 -40 22 -22 43 -40 48 -40 4 0 16
-9 26 -20 10 -11 21 -17 25 -15 4 3 10 -2 14 -10 3 -8 12 -15 21 -15 8 0 15
-7 15 -15 0 -14 11 -19 26 -12 3 1 10 -6 15 -15 6 -10 17 -18 24 -18 8 0 15
-4 15 -9 0 -5 8 -11 18 -14 17 -6 73 -37 82 -47 6 -6 62 -32 70 -32 3 0 18
-10 34 -21 19 -13 27 -16 22 -6 -4 7 0 5 8 -5 9 -11 16 -17 16 -14 0 4 12 1
27 -7 15 -8 30 -12 35 -9 4 3 8 1 8 -4 0 -6 11 -13 25 -16 13 -3 37 -11 52
-18 15 -6 33 -12 38 -13 6 -2 32 -10 58 -19 27 -9 53 -13 59 -10 7 4 8 2 4 -4
-7 -11 17 -16 62 -15 6 1 12 -3 12 -7 0 -4 11 -8 25 -9 47 -3 55 -4 55 -11 0
-4 12 -5 26 -2 15 3 24 1 21 -4 -3 -5 12 -9 34 -7 21 1 39 -3 39 -8 0 -6 7 -6
19 0 10 6 22 7 26 3 6 -7 31 -10 113 -14 17 -1 32 -6 32 -12 0 -7 3 -7 8 -1 9
13 65 14 74 0 5 -7 8 -7 8 0 0 6 9 11 20 11 11 0 20 -4 20 -8 0 -5 9 -4 20 2
15 8 20 8 20 -2 0 -9 3 -9 12 0 8 8 15 9 25 1 7 -7 13 -7 13 -2 0 5 9 9 20 9
11 0 20 -4 20 -9 0 -4 6 -5 13 0 17 11 30 11 46 -1 12 -9 13 -8 7 3 -7 10 -3
12 13 6 13 -4 21 -2 21 6 0 9 4 8 15 -1 12 -10 15 -10 15 1 0 12 2 12 9 0 6
-9 11 -10 15 -2 4 6 12 9 17 6 5 -4 15 -3 22 2 18 11 91 10 99 -2 5 -6 8 -3 8
6 0 12 7 15 25 11 16 -3 25 0 25 9 0 10 3 10 11 2 7 -7 20 -8 33 -4 11 4 30 7
41 7 11 -1 24 4 28 9 6 6 10 5 14 -4 5 -11 7 -11 14 0 5 9 9 10 9 2 0 -6 9 -9
20 -6 11 3 20 0 20 -6 0 -6 6 -11 14 -11 18 0 58 -49 50 -61 -3 -5 0 -9 6 -9
7 0 10 -7 6 -15 -3 -8 -2 -15 2 -15 4 0 7 -11 7 -25 0 -14 -4 -25 -9 -25 -5 0
-6 -3 -3 -7 4 -3 2 -12 -4 -20 -6 -7 -8 -13 -5 -13 10 0 -53 -60 -64 -61 -6
-1 -13 -3 -17 -4 -5 -1 -23 -6 -40 -10 -18 -4 -33 -11 -33 -16 0 -5 -6 -6 -14
-3 -8 3 -24 0 -36 -6 -16 -9 -20 -9 -15 -1 3 6 -8 3 -27 -6 -18 -10 -45 -18
-60 -17 -16 1 -28 -3 -28 -7 0 -5 -7 -5 -17 -2 -12 5 -14 3 -8 -8 7 -12 6 -12
-7 -1 -10 8 -19 9 -22 3 -4 -5 -15 -8 -26 -6 -11 2 -20 -1 -20 -7 0 -7 -6 -6
-15 2 -12 10 -15 10 -15 0 0 -7 -7 -10 -15 -6 -8 3 -15 2 -15 -3 0 -4 -16 -7
-35 -6 -19 1 -35 -3 -35 -9 0 -6 -5 -4 -10 4 -7 10 -10 11 -10 2 0 -8 -9 -11
-24 -8 -13 2 -27 2 -30 -1 -3 -3 -26 -7 -50 -8 -24 -2 -49 -6 -55 -10 -6 -3
-11 0 -11 7 0 8 -3 9 -8 3 -4 -6 -18 -11 -32 -12 -14 -1 -38 -2 -55 -3 -16 -1
-39 1 -50 3 -11 2 -24 2 -30 -1 -17 -11 -79 -9 -94 2 -11 8 -13 8 -8 -1 6 -9
-5 -11 -43 -9 -28 2 -54 7 -57 10 -3 3 -12 1 -20 -5 -9 -8 -13 -8 -13 0 0 7
-8 8 -25 1 -18 -7 -25 -6 -25 2 0 9 -3 9 -12 0 -7 -7 -16 -8 -23 -2 -6 5 -37
10 -70 12 -33 2 -63 8 -67 13 -5 6 -8 4 -8 -5 0 -11 -2 -12 -8 -3 -4 7 -27 13
-50 14 -23 2 -42 7 -42 12 0 5 -6 4 -14 -2 -10 -8 -16 -8 -24 2 -7 8 -27 13
-46 12 -19 0 -32 3 -30 7 3 4 -4 9 -15 9 -29 2 -33 3 -57 17 -12 6 -24 9 -27
5 -4 -3 -13 0 -22 7 -9 7 -18 10 -22 7 -3 -4 -11 -3 -17 2 -15 12 -159 66
-168 63 -5 -1 -8 2 -8 7 0 5 -11 12 -25 15 -14 4 -23 11 -20 15 3 5 -5 7 -17
3 -13 -3 -19 -1 -15 5 4 6 0 14 -9 17 -10 4 -13 2 -8 -7 4 -6 -4 -1 -19 12
-14 12 -30 21 -34 18 -5 -3 -16 3 -23 14 -8 10 -18 19 -22 19 -5 0 -27 12 -51
27 -23 15 -45 26 -49 25 -5 -1 -8 2 -8 8 0 5 -14 17 -30 25 -18 9 -28 21 -24
27 4 6 3 8 -3 5 -5 -3 -28 11 -51 33 -23 21 -42 36 -42 34 0 -5 -138 135 -187
190 -17 20 -29 36 -27 36 3 0 -7 12 -21 27 -14 15 -25 31 -25 35 0 4 -12 19
-27 34 -16 15 -22 23 -15 20 18 -11 15 4 -6 23 -20 17 -38 56 -23 46 6 -3 14
3 20 12 6 10 11 14 11 10 0 -4 11 2 24 15 24 23 38 35 88 74 15 12 24 24 21
28 -3 3 1 6 10 6 10 0 17 5 17 10 0 6 7 10 16 10 10 0 14 6 10 15 -3 8 0 15 7
15 7 0 28 18 47 41 l34 40 56 -58 c31 -32 55 -60 54 -61z"/>
<path d="M20690 14029 c-8 -5 -32 -16 -52 -24 -21 -9 -38 -20 -38 -26 0 -5 -4
-8 -8 -5 -5 3 -25 -12 -44 -34 -20 -21 -39 -36 -42 -33 -3 4 -6 2 -6 -4 0 -13
-36 -54 -42 -48 -2 3 -10 -5 -17 -18 -7 -12 -33 -39 -58 -59 -24 -21 -41 -38
-38 -38 9 0 -22 -30 -59 -57 -16 -13 -27 -23 -24 -23 4 0 -14 -20 -39 -45 -24
-25 -49 -45 -54 -45 -6 0 -8 -4 -4 -9 3 -5 -4 -13 -16 -16 -11 -4 -18 -9 -15
-12 7 -7 -33 -43 -47 -43 -6 0 -8 -3 -4 -6 3 -3 -19 -28 -49 -55 -30 -27 -52
-49 -50 -49 3 0 -6 -11 -20 -25 -14 -14 -29 -25 -35 -25 -6 0 -9 -3 -7 -7 4
-9 -100 -112 -106 -106 -2 3 -7 -5 -11 -16 -3 -11 -15 -23 -26 -26 -11 -4 -19
-9 -16 -11 6 -6 -97 -111 -105 -107 -4 2 -9 -6 -13 -16 -3 -11 -15 -23 -26
-26 -11 -4 -19 -9 -16 -11 5 -6 -146 -158 -155 -156 -5 1 -8 -5 -8 -14 0 -8
-4 -13 -9 -9 -5 3 -12 -4 -16 -15 -3 -11 -9 -19 -13 -17 -4 1 -8 -2 -9 -6 -1
-4 -23 -25 -48 -47 -26 -22 -43 -40 -39 -40 4 0 -3 -8 -14 -19 -12 -10 -18
-21 -15 -25 4 -4 1 -5 -7 -2 -9 3 -30 -13 -52 -40 -21 -25 -38 -43 -38 -39 0
3 -15 -11 -32 -31 -48 -54 -88 -93 -88 -86 0 4 -9 -6 -20 -23 -11 -16 -20 -26
-20 -22 0 4 -15 -9 -32 -30 -44 -51 -58 -65 -58 -60 0 3 -15 -9 -33 -26 -18
-18 -32 -34 -32 -37 1 -8 -74 -78 -79 -73 -2 3 -7 -5 -11 -16 -3 -12 -10 -19
-15 -16 -5 3 -11 -4 -15 -15 -4 -11 -9 -19 -13 -17 -4 1 -28 -19 -53 -45 -26
-27 -44 -48 -40 -48 3 -1 -5 -7 -19 -15 -14 -8 -21 -14 -17 -15 5 0 -10 -16
-33 -35 -23 -19 -39 -35 -36 -35 3 0 -24 -27 -59 -60 -35 -33 -62 -60 -59 -60
4 0 -12 -15 -34 -32 -23 -18 -41 -36 -41 -40 -1 -9 -41 -51 -41 -42 0 3 -17
-15 -37 -40 -21 -24 -42 -45 -47 -45 -6 -1 -20 -10 -32 -22 -12 -11 -52 -31
-90 -44 -57 -20 -84 -24 -152 -21 -45 2 -89 9 -97 16 -8 7 -15 9 -15 6 0 -4
-13 2 -29 13 -15 11 -31 18 -33 15 -8 -8 -198 178 -198 193 0 8 -4 12 -8 9 -5
-3 -28 15 -51 39 -24 25 -48 45 -54 45 -5 0 -7 3 -4 6 3 4 -5 15 -18 26 -14
11 -25 27 -25 36 0 15 -2 15 -10 2 -5 -8 -10 -10 -10 -4 0 14 -148 163 -155
156 -3 -3 -5 -1 -5 5 0 12 -186 200 -212 214 -10 6 -16 15 -12 22 4 7 4 9 -1
5 -4 -4 -13 -2 -21 5 -36 32 -46 39 -51 34 -3 -3 -14 3 -25 13 -20 18 -125 57
-140 52 -5 -1 -8 1 -8 6 0 8 -11 9 -138 14 -45 2 -82 0 -82 -4 0 -4 -10 -7
-22 -7 -13 0 -30 -1 -38 -4 -35 -9 -152 -59 -160 -67 -9 -9 -65 -41 -82 -47
-10 -3 -18 -10 -18 -15 0 -5 -4 -6 -10 -3 -5 3 -10 1 -10 -5 0 -6 -4 -8 -10
-5 -5 3 -10 1 -10 -5 0 -6 -15 -18 -32 -26 -61 -28 -108 -60 -101 -69 5 -4 3
-5 -4 -1 -6 3 -14 2 -18 -4 -4 -6 -11 -8 -16 -5 -5 4 -9 2 -9 -2 0 -5 -20 -19
-45 -33 -25 -14 -45 -28 -45 -31 0 -4 -14 -10 -31 -14 -17 -4 -33 -13 -35 -20
-3 -7 -16 -16 -30 -19 -13 -4 -24 -10 -24 -15 0 -4 -18 -16 -40 -26 -22 -10
-40 -22 -40 -27 0 -4 -7 -8 -15 -8 -8 0 -24 -9 -35 -20 -11 -11 -23 -19 -26
-19 -3 1 -13 -3 -23 -10 -24 -18 -64 -40 -83 -47 -10 -3 -18 -10 -18 -15 0 -5
-7 -9 -15 -9 -8 0 -15 -4 -15 -10 0 -5 -3 -9 -7 -8 -5 1 -26 -9 -48 -23 -22
-14 -47 -29 -55 -32 -8 -4 -42 -25 -75 -46 -33 -22 -78 -49 -100 -61 -21 -12
-45 -29 -52 -38 -7 -10 -13 -14 -13 -9 -1 28 -173 -180 -173 -210 0 -7 -4 -13
-9 -13 -4 0 -7 -3 -6 -7 1 -5 -4 -20 -10 -36 -13 -31 -20 -60 -30 -132 -4 -27
-7 -975 -6 -2105 1 -1551 4 -2067 13 -2105 14 -57 41 -135 53 -151 4 -6 5 -14
1 -17 -3 -4 -1 -7 5 -7 7 0 12 -7 12 -15 0 -9 7 -18 15 -21 8 -4 15 -11 15
-18 0 -18 81 -109 124 -140 15 -11 37 -28 48 -38 12 -10 32 -21 45 -24 13 -4
23 -11 23 -17 0 -6 3 -8 6 -4 4 3 13 -1 21 -9 8 -8 19 -12 24 -9 5 3 19 0 31
-7 25 -13 44 -19 68 -20 8 0 20 -4 25 -8 15 -11 208 -9 222 2 7 5 17 7 23 3 6
-4 16 -2 23 3 7 5 20 8 30 7 9 -2 17 2 17 8 0 5 3 7 6 4 4 -3 16 -1 28 5 11 7
24 11 29 10 4 -1 7 3 7 9 0 5 4 8 9 4 5 -3 12 -1 16 5 4 6 11 8 16 5 5 -4 9
-2 9 4 0 5 17 20 38 32 20 13 47 33 60 46 12 13 22 21 22 16 0 -4 11 9 26 30
14 21 29 35 35 32 5 -4 8 -3 7 2 -1 4 14 33 33 63 39 61 61 105 66 134 2 11 8
25 13 31 5 7 7 15 3 18 -3 4 0 7 8 7 11 0 11 2 -1 10 -9 6 -10 10 -3 10 6 0
10 9 8 20 -2 11 0 22 5 25 5 3 6 13 3 21 -3 9 0 20 8 25 12 7 12 9 0 9 -10 0
-11 3 -2 13 6 8 8 16 5 20 -8 7 -11 77 -4 77 3 0 3 27 0 60 -3 33 -3 60 0 60
3 0 3 81 0 181 -3 100 -2 183 1 184 3 2 2 29 -1 60 -3 31 -4 58 -1 60 3 2 4
46 1 99 -3 53 -3 96 0 96 3 0 3 27 0 60 -3 33 -3 60 0 60 3 0 3 54 0 121 -3
67 -3 122 0 124 3 2 3 100 0 219 -3 119 -3 216 0 216 3 0 3 27 0 60 -3 33 -3
60 0 60 3 0 3 90 0 201 -3 111 -3 202 0 204 3 2 3 64 0 139 -3 75 -3 136 0
136 3 0 3 27 0 60 -3 33 -3 60 0 60 3 0 4 240 3 534 -2 455 0 539 13 565 21
42 95 113 111 107 8 -3 11 -1 8 4 -5 8 12 14 28 9 1 0 14 4 28 10 15 5 30 7
33 4 3 -4 23 -7 43 -9 21 -1 39 -7 41 -13 2 -6 8 -9 12 -6 13 8 150 -117 150
-136 0 -5 5 -9 11 -9 15 0 39 -26 32 -34 -4 -3 -2 -6 4 -6 11 0 153 -138 153
-149 0 -4 11 -14 25 -21 14 -7 25 -20 25 -28 0 -9 2 -13 6 -10 7 7 104 -91
104 -105 0 -6 3 -8 6 -4 7 7 44 -29 44 -44 0 -5 3 -9 8 -7 9 4 111 -100 104
-107 -3 -3 0 -5 5 -5 13 0 123 -108 123 -120 0 -4 9 -10 21 -13 12 -3 18 -10
14 -16 -3 -6 -2 -11 3 -11 13 0 202 -190 202 -202 0 -5 3 -8 8 -6 9 4 151
-140 144 -147 -3 -3 1 -5 9 -5 9 0 24 -8 35 -18 18 -17 75 -44 91 -44 4 0 13
-4 19 -8 39 -33 234 -13 295 31 16 11 29 17 29 14 0 -4 52 45 115 108 63 63
115 112 115 110 0 -3 11 9 25 26 44 51 94 99 100 93 3 -3 5 -1 5 5 0 5 38 48
85 95 47 48 85 85 85 83 0 -3 11 6 23 18 13 12 23 24 23 27 0 3 32 35 71 73
40 37 70 67 68 67 -2 0 8 12 23 27 15 15 29 27 32 27 3 0 19 15 37 33 17 18
30 33 28 33 -2 0 12 16 32 35 20 19 41 35 46 35 6 0 8 2 5 5 -6 6 84 100 94
97 4 -1 9 7 13 17 3 10 16 24 30 31 13 7 22 17 19 22 -3 4 3 8 12 8 10 0 15 2
12 5 -5 5 57 73 67 75 9 1 51 45 49 51 -5 10 98 71 112 65 8 -3 14 -2 14 3 0
10 89 12 105 2 6 -3 16 -6 24 -8 8 -1 18 -8 22 -15 5 -7 9 -9 9 -5 0 8 7 2 42
-30 25 -24 37 -41 31 -47 -4 -3 -1 -6 5 -6 7 0 12 -8 12 -18 0 -10 3 -22 8
-26 4 -4 8 -115 8 -246 1 -130 5 -243 9 -250 5 -7 4 -11 -1 -7 -11 6 -10 -296
1 -314 5 -7 4 -10 -1 -6 -11 6 -10 -216 1 -234 5 -7 4 -10 -1 -6 -11 6 -10
-205 0 -222 4 -6 4 -11 -1 -11 -10 0 -9 -213 1 -229 4 -6 4 -11 -1 -11 -10 0
-9 -213 1 -229 4 -6 4 -11 -1 -11 -10 0 -9 -293 1 -309 4 -6 4 -11 -1 -11 -10
0 -9 -213 1 -229 4 -6 4 -11 -1 -11 -10 0 -9 -213 1 -229 4 -6 4 -11 -1 -11
-10 0 -9 -213 1 -229 4 -6 4 -11 -1 -11 -10 0 -9 -213 1 -229 4 -6 4 -11 -1
-11 -10 0 -9 -293 1 -309 4 -6 4 -11 -1 -11 -10 0 -9 -213 1 -229 4 -6 3 -11
-2 -11 -11 0 -9 -71 2 -89 4 -6 2 -11 -4 -11 -6 0 -8 -10 -5 -22 3 -13 7 -40
8 -60 1 -21 5 -38 9 -38 4 0 6 -13 6 -30 -1 -16 5 -36 12 -45 7 -8 10 -15 6
-15 -8 0 39 -95 66 -132 11 -16 17 -28 14 -28 -3 0 8 -14 26 -30 17 -17 27
-30 23 -30 -4 0 5 -10 21 -22 16 -13 34 -27 39 -33 17 -19 85 -66 85 -60 0 4
7 -1 16 -10 9 -9 29 -19 45 -22 16 -3 27 -9 24 -13 -3 -4 8 -10 23 -13 15 -3
45 -11 67 -17 52 -15 233 -22 257 -9 13 7 18 6 18 -3 0 -9 3 -9 12 0 7 7 19
12 29 12 35 0 258 109 224 110 -5 0 4 7 20 16 17 8 50 40 75 71 25 30 51 62
58 69 7 8 11 14 7 14 -4 0 3 12 14 26 11 15 19 30 16 34 -3 4 2 11 11 14 9 4
14 9 11 13 -4 3 -2 12 4 19 6 8 9 20 6 28 -3 8 -1 16 4 18 6 2 17 35 26 73 13
62 15 470 15 3380 0 1821 -3 3333 -7 3360 -4 28 -16 62 -26 76 -10 14 -16 29
-12 33 3 3 1 6 -5 6 -6 0 -14 9 -17 20 -4 11 -11 18 -16 15 -5 -4 -9 1 -9 9 0
9 -7 16 -16 16 -8 0 -12 5 -9 10 3 6 0 10 -8 10 -8 0 -20 7 -27 15 -7 9 -15
13 -18 10 -3 -3 -14 2 -24 12 -13 11 -18 12 -18 3 0 -9 -3 -10 -13 -1 -8 6
-17 8 -20 4 -4 -3 -7 -2 -7 3 0 5 -20 10 -45 10 -25 0 -45 -5 -45 -11 0 -5 -5
-3 -10 5 -9 13 -10 13 -10 0 0 -10 -3 -11 -8 -4 -4 7 -13 8 -22 3z"/>
<path d="M5730 12933 c-8 -4 -20 -11 -26 -17 -39 -38 -84 -76 -90 -76 -4 0
-20 -14 -36 -32 -15 -17 -28 -29 -28 -25 0 4 -8 -1 -18 -10 -31 -29 -59 -53
-147 -118 -11 -9 -40 -31 -64 -51 -24 -19 -53 -40 -65 -46 -12 -6 -25 -17 -29
-24 -4 -8 -12 -14 -18 -14 -5 0 -15 -5 -22 -10 -43 -36 -91 -70 -94 -66 -2 2
-17 -8 -33 -23 -16 -14 -46 -35 -67 -46 -21 -11 -46 -27 -56 -36 -9 -9 -30
-22 -45 -30 -14 -8 -35 -21 -45 -29 -10 -8 -21 -15 -25 -15 -8 -1 -100 -58
-118 -74 -7 -5 -15 -7 -18 -4 -3 4 -6 1 -6 -5 0 -7 -3 -11 -8 -9 -4 1 -19 -7
-33 -18 -58 -45 -55 108 -53 -2580 1 -1358 4 -2481 7 -2495 23 -97 31 -122 55
-175 14 -33 30 -61 34 -63 4 -2 8 -8 8 -13 0 -8 20 -35 48 -65 7 -7 12 -16 12
-19 0 -3 18 -22 41 -43 23 -20 52 -47 65 -60 13 -13 24 -19 24 -15 0 4 4 3 8
-3 4 -6 34 -23 67 -38 33 -15 68 -32 78 -38 11 -5 21 -7 24 -4 3 3 15 0 27 -6
11 -6 35 -12 51 -14 48 -3 149 -6 158 -4 4 2 11 3 16 4 5 0 13 4 16 8 4 4 16
3 26 -3 13 -6 19 -6 19 1 0 5 8 10 18 10 22 0 116 33 120 43 2 4 12 7 23 7 10
0 19 5 19 10 0 6 7 10 15 10 8 0 15 5 15 12 0 6 3 9 6 5 17 -17 213 191 219
233 0 3 6 15 13 28 22 40 53 145 55 189 1 24 5 43 8 43 7 0 4 36 -6 65 -4 12
-3 15 2 8 4 -6 8 18 8 57 0 38 -3 66 -7 64 -5 -3 -4 6 2 20 6 16 6 27 0 31 -6
4 -6 14 1 27 9 16 8 19 -2 13 -8 -6 -10 -4 -4 4 10 18 12 161 1 161 -5 0 -4 6
3 13 8 10 7 17 -1 25 -7 7 -8 12 -2 12 9 0 11 32 4 50 -1 3 -2 9 -1 13 7 40 7
116 0 111 -5 -3 -5 6 1 20 6 16 6 27 0 31 -6 4 -6 14 1 27 9 16 8 19 -2 13 -8
-6 -10 -4 -4 4 10 18 12 161 1 161 -5 0 -4 6 3 13 8 10 7 17 -1 25 -7 7 -8 12
-2 12 9 0 11 32 4 50 -1 3 -2 9 -1 13 6 34 7 116 2 113 -6 -4 -6 45 -1 52 7 7
5 29 -3 40 -6 7 -6 12 0 12 5 0 9 9 9 20 0 11 -4 20 -8 20 -4 0 -8 5 -8 11 0
5 4 8 8 5 4 -2 8 4 8 15 0 10 -4 19 -9 19 -5 0 -3 7 4 17 8 9 14 17 14 18 0 1
-6 9 -14 18 -7 10 -9 17 -4 17 5 0 9 9 9 20 0 11 -4 20 -8 20 -4 0 -8 5 -8 11
0 5 4 8 8 5 4 -2 8 4 8 15 0 10 -4 19 -9 19 -5 0 -5 6 1 13 6 6 10 17 10 22 0
6 -4 16 -10 23 -6 6 -6 12 -1 12 5 0 9 9 9 20 0 11 -4 20 -8 20 -4 0 -8 5 -8
11 0 5 4 8 8 5 4 -2 8 4 8 15 0 10 -4 19 -9 19 -5 0 -3 7 4 17 17 20 17 16 0
36 -7 10 -9 17 -4 17 5 0 9 9 9 20 0 11 -4 20 -8 20 -4 0 -8 5 -8 11 0 5 4 8
8 5 10 -6 9 45 -1 62 -5 6 -4 12 1 12 5 0 9 7 9 15 0 8 -5 15 -10 15 -5 0 -5
6 2 13 8 10 7 17 -1 25 -7 7 -8 12 -2 12 6 0 11 7 11 15 0 8 -4 15 -9 15 -5 0
-6 6 -2 12 11 17 12 48 3 48 -4 0 -4 14 1 30 6 21 5 28 -2 24 -7 -4 -8 -2 -4
4 10 17 14 82 4 82 -4 0 -8 5 -8 11 0 5 3 8 8 6 4 -3 7 15 7 39 0 24 -4 44 -8
44 -4 0 -3 8 2 18 5 10 6 24 1 32 -5 8 -4 22 1 32 7 13 6 18 -3 18 -10 0 -10
2 -1 8 8 5 9 13 3 22 -5 8 -5 21 1 32 7 13 6 18 -3 18 -10 0 -10 2 -1 8 8 5 9
13 3 22 -5 8 -5 21 1 32 7 13 6 18 -2 18 -9 0 -9 3 0 14 8 10 9 16 1 21 -7 4
-7 12 0 26 8 13 7 19 0 19 -6 0 -8 5 -4 12 11 17 12 48 3 48 -5 0 -6 6 -3 14
9 23 10 126 2 126 -4 0 -8 5 -8 11 0 5 3 8 8 6 4 -3 7 15 7 39 0 24 -3 44 -7
44 -4 0 -3 11 2 24 5 15 5 27 -3 35 -7 7 -7 11 -1 11 6 0 11 7 11 15 0 8 -5
15 -10 15 -5 0 -5 6 2 13 8 10 7 17 -1 25 -7 7 -8 12 -2 12 6 0 11 7 11 15 0
8 -4 15 -9 15 -5 0 -6 5 -3 11 10 15 12 109 3 109 -5 0 -8 5 -8 11 0 5 4 8 8
5 4 -2 8 4 8 15 0 10 -4 19 -9 19 -5 0 -5 6 1 13 13 15 13 29 0 45 -6 6 -6 12
-1 12 5 0 9 9 9 20 0 11 -4 20 -8 20 -4 0 -8 5 -8 11 0 5 4 8 8 5 4 -2 8 4 8
15 0 10 -4 19 -9 19 -5 0 -3 7 4 17 14 17 14 20 -3 41 -6 6 -6 12 -1 12 5 0 9
9 9 20 0 11 -4 20 -8 20 -4 0 -8 5 -8 11 0 5 4 8 8 5 4 -2 8 4 8 15 0 10 -4
19 -9 19 -5 0 -5 6 1 13 17 20 17 23 3 40 -7 10 -9 17 -4 17 5 0 9 9 9 20 0
11 -4 20 -8 20 -4 0 -8 5 -8 11 0 5 3 8 8 6 4 -3 7 15 7 39 0 24 -2 44 -6 44
-5 0 -4 41 1 48 7 7 5 29 -3 40 -6 7 -6 12 0 12 5 0 9 9 9 20 0 11 -4 20 -8
20 -4 0 -8 5 -8 11 0 5 3 8 8 6 4 -3 7 15 7 39 0 24 -3 44 -7 44 -4 0 -4 10 1
23 5 12 5 31 1 42 -4 11 -5 24 -3 28 8 13 9 147 1 147 -4 0 -3 12 1 28 9 33 8
43 -2 60 -5 7 -4 12 2 12 6 0 11 5 11 11 0 5 -4 8 -9 5 -5 -3 -6 8 -2 27 8 39
8 48 -2 65 -5 6 -4 12 0 12 5 0 8 22 8 50 0 27 -4 50 -8 50 -5 0 -5 5 -2 11 9
13 12 149 4 149 -5 0 -4 41 1 48 7 7 5 29 -3 40 -6 7 -6 12 0 12 5 0 9 9 9 20
0 11 -4 20 -8 20 -4 0 -8 5 -8 11 0 5 3 8 8 6 4 -3 7 15 7 39 0 24 -2 44 -6
44 -5 0 -4 41 1 48 7 7 5 29 -3 40 -6 7 -6 12 0 12 5 0 9 9 9 20 0 11 -4 20
-8 20 -4 0 -8 5 -8 11 0 5 4 8 8 5 4 -2 8 4 8 15 0 10 -4 19 -9 19 -5 0 -5 6
1 13 6 6 10 17 10 22 0 6 -4 16 -10 23 -6 6 -6 12 -1 12 5 0 9 9 9 20 0 11 -4
20 -8 20 -4 0 -8 5 -8 11 0 5 4 8 8 5 4 -2 8 4 8 15 0 10 -4 19 -9 19 -6 0 -6
5 0 13 11 14 11 27 0 45 -5 6 -4 12 0 12 5 0 9 9 9 20 0 11 -4 20 -8 20 -4 0
-8 5 -8 11 0 5 4 8 8 5 4 -2 8 4 8 15 0 10 -4 19 -9 19 -5 0 -5 6 1 13 17 20
17 23 3 40 -7 10 -9 17 -4 17 5 0 9 9 9 20 0 11 -4 20 -8 20 -4 0 -8 5 -8 11
0 5 4 8 8 5 10 -6 9 45 -2 63 -7 10 -5 12 3 6 10 -6 11 -3 3 11 -5 11 -7 24
-5 30 2 6 -12 25 -32 43 -35 30 -76 39 -115 24z"/>
<path d="M8893 12539 c-18 -10 -33 -15 -33 -11 0 4 -5 -1 -11 -10 -5 -10 -15
-18 -21 -18 -33 0 -98 -117 -102 -182 -2 -49 17 -124 39 -148 8 -9 12 -19 9
-22 -3 -4 3 -9 14 -12 11 -4 23 -13 26 -21 8 -23 87 -57 142 -60 55 -4 134 12
134 27 0 5 4 7 9 4 4 -3 18 6 31 19 13 13 26 22 30 20 4 -3 10 5 13 16 3 12
10 18 15 15 6 -3 9 2 8 11 -2 10 4 28 12 41 8 12 11 22 7 22 -4 0 -2 7 5 14
11 15 12 101 1 121 -3 6 -7 19 -8 29 -2 11 -9 27 -17 35 -7 9 -16 24 -19 34
-4 10 -11 15 -17 12 -5 -3 -10 1 -10 9 0 8 -9 18 -20 21 -11 3 -26 13 -34 20
-7 8 -26 16 -42 19 -16 2 -30 5 -31 6 -8 6 -50 5 -64 -1 -9 -5 -20 -4 -25 0
-5 5 -24 0 -41 -10z"/>
<path d="M13020 12332 c0 -4 9 -8 20 -9 11 -1 18 2 15 8 -7 11 -35 12 -35 1z"/>
<path d="M13068 12298 c5 -5 16 -8 23 -6 8 3 3 7 -10 11 -17 4 -21 3 -13 -5z"/>
<path d="M2386 11263 c-4 -4 -12 -8 -19 -9 -26 -6 -136 -33 -152 -38 -5 -2
-29 -7 -52 -11 -24 -4 -43 -10 -43 -14 0 -3 -21 -7 -47 -9 -26 -1 -50 -6 -53
-10 -5 -7 -35 -12 -72 -13 -10 0 -18 -4 -18 -8 0 -4 -10 -8 -22 -8 -29 -2 -83
-10 -83 -13 0 -1 -13 -4 -30 -6 -42 -4 -58 -8 -74 -18 -9 -6 -12 -5 -7 2 4 7
-3 6 -19 -2 -14 -7 -36 -12 -50 -10 -14 1 -25 -2 -25 -6 0 -5 -8 -7 -17 -6
-32 6 -124 -23 -163 -52 -24 -16 -49 -48 -65 -80 l-26 -53 0 -1902 c1 -1046 3
-1913 7 -1927 3 -14 7 -36 9 -49 6 -43 50 -147 74 -175 13 -16 13 -18 1 -11
-8 4 -5 -3 8 -17 12 -13 19 -28 15 -31 -3 -4 2 -7 12 -7 10 0 16 -3 12 -6 -7
-7 115 -133 125 -127 4 2 18 -8 32 -22 14 -14 31 -25 38 -25 7 0 22 -7 33 -16
19 -14 93 -39 108 -36 4 1 7 -2 7 -6 0 -4 8 -8 18 -8 33 -2 114 -14 122 -19 5
-3 11 1 13 7 4 10 6 10 6 0 1 -7 5 -11 11 -7 5 3 30 6 55 7 25 0 45 4 45 8 0
3 10 6 23 5 12 -1 28 2 35 8 6 5 12 6 12 2 0 -4 6 -3 13 2 6 6 22 9 34 8 12
-1 20 2 18 6 -6 9 24 21 35 14 4 -3 10 2 14 10 3 8 15 15 26 15 11 0 20 4 20
9 0 4 18 20 39 34 22 15 53 40 70 56 16 16 31 28 33 28 2 -1 2 0 1 1 -1 2 16
27 38 55 35 47 73 115 79 142 1 6 7 19 13 30 6 11 10 24 9 29 -2 4 2 14 8 20
5 7 7 16 3 19 -3 4 -2 7 3 7 5 0 10 19 11 43 1 23 4 57 7 75 3 18 1 32 -5 32
-6 0 -7 6 -2 13 10 17 11 77 1 83 -5 3 -5 11 -1 17 11 19 10 137 -2 137 -7 0
-7 3 0 8 13 9 14 145 0 154 -7 5 -7 8 0 8 14 0 13 143 0 152 -7 5 -7 8 0 8 11
0 14 145 3 156 -4 4 -4 12 -1 18 11 18 10 136 -2 136 -7 0 -7 3 0 8 13 9 14
145 0 154 -6 5 -7 8 0 8 13 0 13 150 0 150 -7 0 -7 3 0 8 13 9 14 145 0 154
-6 5 -7 8 0 8 13 0 13 150 0 150 -7 0 -7 3 0 8 13 9 14 152 0 152 -7 0 -6 3 1
8 13 9 12 85 -1 94 -7 5 -7 8 0 8 6 0 11 23 11 50 0 28 -4 50 -9 50 -6 0 -6 5
-1 13 11 15 11 38 0 56 -6 9 -5 12 2 7 11 -7 11 31 -1 51 -3 5 -3 13 0 17 12
11 10 106 -2 106 -6 0 -7 3 0 8 13 9 15 52 3 52 -5 0 -6 6 -2 12 12 19 12 48
0 48 -7 0 -8 3 -1 8 13 9 15 102 2 102 -6 0 -6 5 -1 13 11 15 11 38 0 56 -6 9
-5 12 2 7 11 -7 11 31 -1 51 -3 5 -3 13 0 17 12 11 10 106 -2 106 -6 0 -7 3 0
8 13 9 15 52 3 52 -5 0 -6 6 -2 12 12 19 12 48 0 48 -7 0 -8 3 -1 8 13 9 15
102 2 102 -6 0 -6 5 -1 13 11 15 11 38 0 56 -6 9 -5 12 2 7 11 -7 11 31 -1 51
-3 5 -3 13 0 17 12 11 10 106 -2 106 -6 0 -7 3 0 8 14 10 17 52 4 52 -5 0 -7
6 -3 12 12 19 12 48 0 48 -7 0 -8 3 -1 8 13 9 15 102 3 102 -5 0 -6 5 -2 12
12 19 13 79 2 72 -6 -4 -5 2 1 14 7 14 8 23 1 27 -6 4 -7 12 -3 18 10 16 11
107 1 113 -4 3 -3 15 3 27 9 16 9 22 0 25 -6 2 -8 9 -4 15 11 19 11 47 -1 47
-7 0 -8 3 -1 8 13 9 15 102 2 102 -5 0 -5 5 1 13 12 13 11 35 -1 54 -4 6 -1
14 5 16 10 4 10 6 1 6 -7 1 -13 8 -13 16 0 38 -87 135 -121 135 -10 0 -19 4
-19 8 0 4 -19 9 -42 11 -23 1 -45 4 -48 6 -4 3 -10 1 -14 -2z"/>
<path d="M12422 10035 c-24 -8 -52 -21 -63 -31 -10 -9 -19 -14 -19 -10 0 9
-14 -5 -53 -52 -15 -19 -25 -38 -21 -43 3 -5 -2 -9 -11 -9 -9 0 -14 -4 -10 -9
3 -5 1 -12 -5 -16 -6 -4 -8 -11 -5 -16 4 -5 2 -9 -3 -9 -5 0 -15 -13 -22 -30
-7 -16 -16 -30 -21 -30 -5 0 -8 -3 -7 -7 3 -10 -52 -97 -64 -101 -4 -2 -6 -8
-2 -13 3 -5 0 -9 -6 -9 -6 0 -8 -4 -5 -10 3 -5 2 -10 -3 -10 -6 0 -13 -11 -16
-25 -4 -14 -11 -25 -16 -25 -6 0 -15 -11 -20 -25 -5 -14 -14 -25 -19 -25 -6 0
-8 -8 -4 -17 3 -10 2 -15 -2 -11 -5 5 -24 -16 -44 -45 -19 -28 -40 -57 -45
-64 -30 -34 -36 -43 -36 -53 0 -6 -5 -8 -12 -4 -8 5 -9 2 -5 -9 3 -9 2 -16 -2
-14 -5 1 -10 -2 -12 -8 -3 -10 -13 -21 -74 -87 -19 -21 -32 -38 -29 -38 3 0
-7 -12 -23 -27 -15 -16 -31 -27 -35 -26 -4 2 -7 0 -6 -5 2 -4 -6 -18 -17 -31
-29 -34 -216 -221 -222 -221 -2 0 -24 -20 -49 -45 -24 -25 -44 -43 -44 -40 0
3 -10 -4 -22 -15 -65 -59 -195 -160 -206 -160 -6 0 -13 -7 -16 -16 -3 -8 -10
-13 -15 -10 -5 3 -12 -1 -15 -10 -3 -8 -10 -13 -14 -10 -5 3 -15 -4 -22 -15
-8 -10 -18 -19 -22 -19 -5 0 -30 -15 -56 -33 -26 -18 -60 -39 -77 -47 -16 -8
-32 -18 -35 -21 -3 -4 -32 -21 -65 -39 -33 -18 -68 -40 -77 -48 -10 -8 -18
-12 -18 -9 0 6 -107 -48 -127 -65 -7 -6 -13 -8 -13 -4 0 4 -11 -1 -25 -10 -14
-9 -25 -13 -25 -9 0 3 -7 -1 -16 -9 -8 -9 -24 -16 -35 -16 -10 0 -19 -4 -19
-10 0 -5 -8 -10 -18 -10 -10 0 -22 -4 -27 -8 -8 -7 -168 -74 -185 -78 -30 -5
-71 -21 -97 -35 -23 -13 -33 -15 -37 -6 -3 9 -5 9 -5 0 -1 -7 -10 -13 -20 -13
-11 0 -23 -5 -26 -11 -4 -5 -12 -8 -18 -6 -7 2 -28 -3 -47 -11 -53 -22 -259
-79 -307 -84 -7 -1 -13 -5 -13 -10 0 -5 -11 -6 -25 -4 -14 3 -25 1 -25 -3 0
-4 -10 -7 -22 -8 -13 -1 -36 -4 -53 -8 -16 -4 -38 -8 -47 -9 -10 -1 -20 -5
-24 -8 -3 -4 -12 -4 -20 -1 -8 3 -14 1 -14 -4 0 -5 -12 -8 -27 -8 -16 1 -34
-3 -40 -8 -9 -6 -13 -5 -13 4 0 12 -2 12 -9 0 -5 -8 -16 -11 -24 -8 -8 3 -18
3 -21 -1 -7 -6 -8 -6 -76 -16 -25 -4 -52 -9 -60 -11 -8 -2 -40 -7 -70 -9 -30
-3 -64 -8 -76 -10 -11 -2 -53 -7 -93 -11 -40 -3 -81 -8 -91 -10 -10 -2 -42 -4
-71 -6 -30 -1 -59 -6 -66 -11 -7 -5 -14 -5 -18 2 -4 7 -12 7 -26 0 -13 -8 -19
-7 -19 0 0 7 -6 8 -17 2 -10 -5 -52 -10 -93 -11 -104 -4 -183 -8 -195 -11 -5
-1 -14 -2 -20 0 -25 4 -115 1 -124 -5 -6 -3 -11 -1 -11 5 0 6 -5 8 -12 3 -19
-11 -37 -12 -44 -2 -3 5 -10 6 -16 2 -16 -9 -128 -10 -128 0 0 5 -5 5 -12 1
-7 -5 -28 -7 -48 -6 -139 8 -447 6 -442 -3 3 -5 -1 -4 -9 2 -12 10 -18 10 -27
1 -8 -8 -12 -8 -12 -1 0 10 -58 9 -87 -2 -7 -2 -13 -1 -13 4 0 4 -16 7 -35 7
-19 -1 -35 -4 -35 -8 0 -4 -11 -4 -23 1 -13 5 -30 5 -37 1 -8 -5 -18 -6 -23
-3 -18 11 -55 -8 -61 -32 -9 -37 20 -59 94 -71 8 -1 26 -6 40 -9 14 -4 43 -11
65 -16 22 -5 49 -11 60 -14 34 -8 68 -15 105 -21 19 -3 38 -8 41 -10 4 -2 24
-6 44 -10 60 -9 74 -12 85 -19 6 -3 10 0 10 7 0 11 2 11 9 0 4 -7 12 -12 17
-11 5 1 11 0 14 -1 3 -1 16 -4 30 -6 14 -2 41 -6 60 -9 19 -3 46 -7 60 -9 14
-2 25 -5 25 -6 0 -1 14 -3 30 -5 77 -10 123 -17 155 -22 19 -3 46 -6 60 -8 24
-1 109 -11 175 -20 205 -27 714 -23 1070 9 117 11 171 16 210 21 22 3 65 8 95
11 30 3 57 9 60 12 3 4 21 8 40 8 48 2 118 12 129 18 5 4 28 7 50 8 23 1 41 4
41 8 0 3 10 7 23 7 23 1 82 11 82 13 0 1 11 3 25 6 14 2 35 6 47 9 13 3 26 6
30 6 5 1 18 5 31 10 13 5 37 11 55 14 18 3 43 9 57 14 14 5 48 15 75 22 28 6
56 17 64 23 12 9 13 8 6 -4 -7 -13 -6 -13 7 -2 15 12 43 21 78 25 8 1 21 8 29
15 8 8 22 11 32 9 11 -3 19 -1 19 5 0 5 5 6 10 3 6 -3 10 -1 10 5 0 7 7 10 15
6 8 -3 15 0 15 5 0 6 9 9 20 6 11 -3 18 -1 14 4 -3 5 0 9 7 9 20 0 263 101
270 112 3 5 10 9 15 8 12 -1 88 32 95 43 3 5 9 8 13 7 4 -1 45 19 91 44 47 25
87 46 91 46 3 0 12 7 21 15 8 8 18 13 23 10 4 -3 11 2 14 11 3 8 10 13 15 9 6
-3 13 0 18 8 4 7 20 18 36 24 15 7 27 17 27 23 0 5 4 10 9 10 15 0 111 62 111
71 0 5 7 9 15 9 8 0 15 5 15 11 0 5 5 7 10 4 6 -3 10 -2 10 4 0 5 9 13 20 16
11 4 18 10 15 15 -3 5 3 11 14 15 10 3 30 16 44 28 37 34 63 54 91 72 14 10
24 21 21 25 -3 5 4 12 16 15 22 7 268 250 324 321 52 65 69 85 93 109 12 13
22 27 22 31 0 3 12 21 28 39 48 58 62 79 62 94 0 8 3 11 6 8 7 -7 44 35 44 50
0 5 9 19 20 31 12 12 19 22 16 22 -5 0 51 87 79 125 8 10 15 25 15 32 0 7 5
13 11 13 5 0 7 5 4 10 -3 6 -2 10 2 10 5 0 16 15 24 33 9 17 41 80 71 139 31
59 53 109 50 112 -3 3 0 6 7 6 7 0 9 5 6 10 -3 6 -1 10 5 10 7 0 10 7 7 15 -4
8 -1 17 5 21 7 5 8 2 3 -7 -5 -8 -4 -10 0 -6 19 17 29 177 12 177 -7 0 -5 5 3
10 9 6 10 10 3 10 -6 0 -17 16 -23 35 -6 19 -16 35 -21 35 -5 0 -9 6 -9 13 0
7 -10 19 -21 27 -12 8 -27 20 -33 26 -44 42 -160 61 -234 39z"/>
<path d="M93 6337 c-2 -4 -8 -5 -12 -2 -5 2 -8 -29 -8 -71 0 -41 2 -72 5 -70
3 3 11 1 19 -5 9 -9 13 -8 13 0 0 8 5 9 19 1 14 -7 22 -7 26 0 4 6 12 7 18 3
15 -9 49 -9 65 1 6 4 12 3 12 -3 0 -6 11 -6 30 -1 16 5 30 5 30 1 0 -9 31 -8
46 1 5 4 16 3 24 -2 8 -5 22 -5 32 1 12 7 18 6 18 -1 0 -6 4 -9 9 -6 4 3 8
-143 8 -327 l-1 -332 100 -3 c54 -2 96 0 92 4 -5 4 -3 13 3 21 6 7 7 13 2 13
-5 0 -9 14 -8 30 0 17 4 30 8 30 5 0 5 6 0 13 -11 17 -11 60 0 75 6 7 6 12 0
12 -5 0 -9 11 -9 25 0 14 4 25 9 25 6 0 6 5 0 13 -11 14 -11 27 0 45 5 6 4 12
-1 12 -12 0 -10 43 3 52 6 5 6 8 -1 8 -11 0 -12 28 -1 46 3 6 3 14 0 18 -11
11 -10 46 1 46 7 0 7 3 1 8 -13 9 -15 82 -2 82 5 0 3 7 -4 17 -8 9 -14 17 -14
18 0 1 6 9 14 18 9 12 10 17 2 17 -7 0 -9 5 -6 11 4 6 13 8 20 5 8 -3 16 0 18
7 3 9 9 8 22 -3 10 -8 20 -14 21 -12 11 10 64 19 64 11 0 -6 5 -7 11 -4 14 9
79 12 79 4 0 -8 32 -5 48 5 6 4 12 4 12 -1 0 -9 67 -9 76 0 8 8 11 125 4 137
-7 12 -910 19 -917 7z"/>
<path d="M4623 6343 c-4 -1 -30 -4 -58 -5 -46 -3 -50 -5 -50 -28 -1 -14 4 -29
10 -33 7 -6 6 -10 -1 -13 -11 -5 -10 -81 0 -92 3 -3 1 -11 -5 -18 -7 -8 -7
-14 0 -18 6 -4 7 -15 1 -30 -5 -15 -5 -27 3 -35 6 -6 7 -11 1 -11 -10 0 -11
-111 0 -128 3 -6 1 -14 -5 -18 -8 -4 -7 -9 2 -15 8 -5 9 -9 4 -9 -12 0 -13
-40 -1 -58 4 -7 4 -12 -1 -12 -12 0 -10 -84 2 -92 6 -5 6 -8 -2 -8 -12 0 -10
-30 3 -52 5 -7 3 -8 -5 -3 -10 6 -11 3 -2 -14 7 -11 9 -21 6 -21 -7 0 24 -61
40 -77 7 -6 15 -9 19 -6 3 4 6 1 6 -6 0 -7 7 -11 15 -8 8 4 17 2 20 -2 2 -5
51 -9 107 -10 56 -1 105 -4 110 -7 4 -3 8 -2 8 3 0 4 113 7 250 6 150 -1 248
2 245 8 -5 8 7 13 26 11 15 -2 51 49 53 72 0 14 4 26 7 26 3 0 5 21 6 48 0 26
1 58 2 72 1 14 1 33 1 43 0 9 0 24 0 32 0 8 0 22 0 30 0 8 0 22 0 30 0 8 0 22
0 30 0 8 0 22 0 30 0 8 0 22 0 30 0 8 0 22 0 30 0 8 0 22 0 30 0 8 0 21 1 28
0 6 -2 22 -5 35 -2 12 0 22 5 22 6 0 7 6 3 12 -11 18 -12 48 -2 48 5 0 6 6 2
12 -11 18 -12 48 -2 48 5 0 6 6 1 13 -4 6 -8 26 -8 42 l0 30 -94 0 -93 0 0
-167 c0 -92 3 -172 7 -178 3 -5 3 -10 -2 -10 -4 0 -7 -70 -6 -156 1 -131 -1
-155 -13 -150 -8 3 -14 1 -14 -3 0 -10 -19 -9 -37 2 -6 4 -15 3 -18 -3 -5 -7
-11 -8 -19 -1 -7 6 -17 6 -26 1 -9 -5 -19 -5 -26 1 -8 7 -14 6 -19 -1 -5 -8
-11 -8 -20 0 -10 8 -19 8 -34 0 -15 -7 -21 -7 -21 0 0 8 -6 8 -20 0 -14 -8
-26 -8 -40 0 -14 8 -20 8 -20 0 0 -8 -6 -8 -20 0 -14 8 -20 8 -20 0 0 -7 -6
-8 -19 0 -14 7 -22 7 -26 0 -4 -7 -12 -7 -18 -2 -14 10 -27 10 -44 -1 -6 -4
-15 -3 -18 3 -5 8 -11 7 -21 -1 -14 -11 -14 -11 -28 35 -3 7 1 19 7 25 6 6 7
11 2 11 -11 0 -12 331 -1 348 3 6 0 13 -6 15 -10 4 -9 8 2 16 8 6 11 11 5 11
-11 0 -11 141 0 159 3 6 2 11 -3 11 -6 0 -8 8 -5 19 4 16 -2 19 -36 23 -22 2
-43 2 -48 1z"/>
<path d="M7228 6340 c-26 -3 -49 -8 -51 -10 -10 -11 -37 -70 -35 -76 2 -3 -5
-10 -15 -15 -9 -6 -15 -14 -12 -20 4 -5 -1 -12 -9 -15 -9 -3 -14 -10 -11 -14
3 -5 1 -11 -5 -15 -6 -4 -8 -11 -5 -16 4 -5 3 -9 -2 -9 -4 0 -21 -26 -38 -58
-16 -31 -33 -59 -36 -62 -4 -3 -9 -15 -13 -28 -4 -12 -12 -19 -18 -16 -7 4 -8
2 -4 -5 4 -6 0 -18 -8 -27 -9 -9 -14 -19 -11 -24 3 -4 -2 -11 -10 -14 -8 -3
-14 -9 -13 -13 3 -13 -24 -63 -34 -63 -5 0 -6 -4 -3 -10 3 -5 1 -10 -6 -10 -7
0 -10 -3 -7 -6 5 -5 -48 -103 -70 -129 -11 -14 -26 -48 -23 -58 0 -4 -6 -10
-14 -13 -8 -3 -12 -10 -9 -15 3 -5 -1 -12 -10 -15 -8 -3 -12 -12 -9 -20 3 -8
1 -14 -5 -14 -5 0 -12 -6 -15 -14 -5 -12 12 -14 92 -14 l98 0 24 54 c13 29 27
54 32 54 4 0 7 9 7 20 0 11 5 20 10 20 6 0 10 6 10 14 0 13 41 15 263 16 l263
0 29 -60 c16 -33 33 -60 37 -60 5 0 6 -5 3 -10 -3 -6 2 -18 11 -28 22 -22 221
-35 221 -14 0 6 -4 12 -9 12 -5 0 -7 4 -3 9 3 5 0 15 -7 23 -18 19 -50 78 -43
78 4 0 0 7 -8 15 -8 8 -36 53 -63 100 -26 47 -51 85 -55 85 -5 0 -6 6 -3 13 3
8 -2 20 -10 27 -9 7 -13 16 -10 21 3 5 1 9 -4 9 -5 0 -17 18 -28 40 -10 22
-23 40 -27 40 -5 0 -5 5 -2 10 3 6 2 10 -4 10 -6 0 -13 11 -17 25 -3 14 -9 25
-13 25 -3 0 -17 25 -30 55 -14 30 -28 52 -33 49 -7 -5 -12 18 -9 39 0 4 -3 7
-9 7 -5 0 -10 7 -10 16 0 8 -5 12 -10 9 -6 -4 -9 -2 -8 3 2 5 -8 28 -22 50
-22 36 -30 41 -70 44 -25 1 -66 1 -92 -2z m57 -190 c8 -16 15 -32 15 -35 -1
-3 8 -17 19 -32 12 -14 18 -29 15 -34 -3 -5 0 -9 5 -9 6 0 11 -4 11 -10 0 -5
14 -32 30 -60 17 -28 30 -58 30 -66 0 -8 4 -13 9 -10 5 3 11 -5 13 -19 3 -14
0 -26 -8 -29 -8 -3 -14 -1 -14 5 0 6 -7 6 -19 -1 -14 -7 -20 -7 -23 2 -3 8 -9
8 -24 0 -15 -8 -24 -8 -32 0 -9 9 -12 9 -12 -2 0 -11 -3 -11 -12 -2 -7 7 -17
8 -30 1 -12 -7 -18 -6 -18 1 0 6 -5 8 -12 4 -12 -8 -117 -6 -130 2 -12 8 3 34
16 27 6 -3 8 -3 4 2 -6 7 39 102 62 130 5 7 7 15 3 18 -3 4 -1 7 5 7 7 0 12 7
12 15 0 8 9 24 20 35 11 11 20 22 19 25 -1 6 25 65 28 65 1 0 9 -13 18 -30z"/>
<path d="M9779 6327 c-10 -10 -22 -29 -25 -42 -3 -14 -10 -25 -14 -25 -5 0
-12 -10 -16 -22 -4 -13 -14 -29 -23 -36 -9 -8 -10 -11 -3 -7 7 4 -3 -18 -23
-49 -20 -31 -32 -56 -28 -56 4 0 -2 -7 -13 -15 -10 -8 -16 -15 -11 -15 4 0 -4
-18 -18 -40 -14 -22 -25 -44 -25 -49 0 -5 -4 -11 -9 -13 -5 -1 -11 -10 -13
-18 -3 -15 -13 -29 -36 -55 -7 -8 -10 -19 -7 -25 3 -5 1 -10 -6 -10 -7 0 -10
-3 -6 -6 3 -4 1 -12 -6 -20 -29 -32 -36 -42 -31 -46 2 -3 -6 -20 -19 -39 -13
-19 -30 -49 -38 -67 -7 -17 -17 -32 -21 -32 -5 0 -8 -5 -8 -10 0 -6 -11 -28
-25 -50 -22 -35 -35 -73 -19 -58 3 4 19 2 35 -2 17 -5 31 -5 35 1 4 6 10 6 18
0 7 -6 15 -9 17 -6 3 2 21 5 42 7 32 2 38 6 53 42 9 23 19 43 23 46 3 3 15 24
25 48 l19 43 224 -3 c123 -2 223 -1 223 2 0 4 16 4 36 2 27 -3 40 -12 58 -41
13 -20 26 -46 30 -58 4 -13 12 -23 17 -23 6 0 7 -4 4 -10 -3 -5 -1 -10 5 -10
6 0 8 -4 5 -10 -3 -5 -1 -10 5 -10 6 0 8 -5 5 -10 -5 -8 29 -10 105 -9 79 1
109 5 105 13 -3 6 -8 19 -11 29 -4 9 -10 17 -14 17 -8 0 -18 27 -16 43 1 5 -7
13 -16 18 -10 6 -18 17 -18 24 0 8 -5 15 -11 15 -5 0 -8 4 -5 9 3 5 -2 19 -12
32 -10 13 -26 41 -37 62 -11 20 -23 37 -28 37 -4 0 -6 4 -3 9 3 5 -4 20 -15
35 -11 14 -17 26 -12 26 4 0 3 4 -4 8 -6 4 -13 14 -15 22 -2 8 -12 23 -22 33
-10 9 -16 17 -11 17 4 0 2 6 -4 13 -6 8 -8 17 -4 20 3 4 2 7 -4 7 -5 0 -22 24
-38 53 -15 28 -37 64 -47 80 -11 15 -16 27 -13 27 4 0 -1 7 -9 16 -9 8 -14 20
-11 25 4 5 1 9 -4 9 -6 0 -11 7 -11 15 0 8 -4 15 -10 15 -5 0 -10 7 -10 15 0
8 -4 15 -8 15 -5 0 -14 15 -21 33 l-13 32 -85 0 c-67 0 -88 -4 -104 -18z m111
-194 c0 -6 3 -13 8 -15 4 -1 18 -25 32 -53 14 -27 27 -52 30 -55 9 -8 34 -65
32 -72 -1 -5 3 -8 8 -8 6 0 10 -9 10 -21 0 -11 4 -18 9 -15 10 7 20 -23 14
-41 -3 -9 -10 -10 -23 -3 -10 6 -21 6 -24 2 -3 -5 -30 -5 -60 -2 -31 3 -62 2
-71 -2 -10 -6 -15 -5 -15 3 0 8 -3 9 -13 0 -8 -6 -16 -9 -18 -6 -3 2 -31 5
-62 6 -57 2 -65 6 -48 25 9 9 74 125 95 171 6 13 15 23 19 23 5 0 5 5 2 10 -3
6 -1 10 4 10 6 0 10 3 9 8 -1 4 7 24 17 44 17 34 20 36 31 20 8 -9 14 -22 14
-29z"/>
<path d="M14767 6335 c-7 -5 -23 -31 -37 -57 -14 -27 -29 -48 -33 -48 -5 0 -5
-5 -2 -10 3 -6 -1 -13 -10 -16 -9 -4 -14 -13 -11 -20 3 -8 1 -14 -4 -14 -6 0
-10 -7 -10 -15 0 -8 -5 -15 -11 -15 -5 0 -8 -4 -5 -9 3 -4 -5 -21 -19 -37 -13
-15 -23 -30 -22 -33 2 -7 -68 -134 -95 -173 -11 -16 -16 -28 -11 -28 4 0 3 -4
-3 -8 -6 -4 -27 -36 -46 -72 -20 -36 -46 -83 -58 -105 -13 -22 -32 -57 -42
-77 -10 -20 -22 -40 -28 -43 -5 -3 -10 -12 -10 -20 0 -10 20 -14 75 -17 46 -2
75 1 75 7 0 6 4 3 10 -5 8 -12 10 -12 16 3 3 9 11 14 18 10 6 -3 8 -3 5 1 -10
10 75 161 89 158 7 -1 12 1 12 5 0 5 112 7 250 5 214 -2 250 -5 250 -18 0 -8
6 -17 14 -20 8 -3 12 -12 9 -20 -3 -8 0 -14 7 -14 6 0 8 -5 5 -10 -3 -6 1 -13
9 -16 9 -3 14 -10 11 -14 -3 -5 1 -14 8 -22 7 -7 16 -21 20 -30 5 -16 20 -18
106 -18 55 0 102 4 105 8 5 8 -52 105 -65 110 -4 2 -6 9 -3 16 3 7 -2 19 -11
26 -8 7 -15 18 -15 25 0 8 -3 15 -7 17 -8 3 -44 66 -67 115 -6 13 -15 23 -19
23 -5 0 -5 5 -2 10 3 6 1 10 -5 10 -6 0 -8 5 -5 10 3 6 1 10 -4 10 -6 0 -11 7
-11 15 0 8 -4 15 -10 15 -5 0 -10 9 -10 20 0 11 -4 20 -9 20 -10 0 -37 61 -33
75 2 6 0 7 -4 3 -6 -7 -94 136 -94 154 0 4 -4 8 -10 8 -5 0 -10 9 -10 20 0 11
-4 20 -10 20 -5 0 -10 7 -10 15 0 8 -5 15 -11 15 -5 0 -7 5 -4 10 3 6 1 10 -6
10 -7 0 -10 3 -6 6 3 4 0 12 -7 19 -16 16 -170 24 -189 10z m98 -183 c0 -4 12
-28 27 -53 15 -25 28 -52 30 -59 2 -8 11 -23 20 -34 10 -10 15 -23 12 -28 -3
-4 0 -8 6 -8 6 0 9 -4 6 -9 -3 -5 1 -14 10 -21 8 -7 13 -19 10 -27 -3 -8 -2
-12 3 -9 4 3 13 -6 19 -19 10 -21 8 -26 -8 -35 -13 -7 -21 -7 -25 0 -5 8 -11
8 -20 0 -10 -8 -15 -8 -20 0 -5 8 -11 8 -19 1 -7 -6 -16 -8 -20 -4 -11 11 -36
12 -36 1 0 -7 -5 -6 -14 1 -11 9 -16 9 -21 1 -5 -8 -10 -9 -18 -1 -7 7 -16 7
-29 0 -13 -7 -18 -6 -18 3 0 9 -3 9 -12 0 -7 -7 -17 -8 -30 -1 -12 6 -18 6
-18 0 0 -6 -6 -8 -14 -5 -14 5 -11 32 4 44 3 3 17 26 29 53 13 26 27 47 32 47
6 0 8 4 4 9 -3 5 2 16 10 25 9 8 16 18 15 21 -1 25 1 37 7 32 6 -7 35 45 37
66 2 20 41 29 41 9z"/>
<path d="M20677 6344 c-2 -2 -21 -5 -42 -6 -35 -3 -39 -6 -40 -31 -1 -15 2
-27 8 -27 5 0 4 -7 -3 -15 -10 -12 -10 -15 1 -15 9 0 10 -3 4 -8 -13 -9 -15
-82 -2 -82 5 0 3 -8 -4 -17 -12 -14 -12 -16 0 -8 10 6 12 4 6 -5 -13 -21 -14
-130 -1 -130 7 0 7 -3 1 -8 -14 -10 -17 -32 -4 -32 8 0 8 -5 -1 -15 -10 -12
-10 -15 1 -15 9 0 10 -3 4 -8 -13 -9 -15 -82 -2 -82 5 0 3 -8 -4 -17 -12 -14
-12 -16 0 -8 10 6 12 4 6 -5 -12 -19 -14 -130 -2 -130 5 0 3 -8 -4 -17 -12
-14 -12 -15 -1 -9 11 7 12 4 5 -10 -11 -22 -11 -34 0 -51 5 -7 4 -13 -1 -13
-5 0 -8 -12 -7 -27 1 -24 6 -29 38 -34 22 -3 38 -2 41 5 3 7 5 7 5 1 1 -7 16
-9 36 -7 l36 4 -3 279 c-2 202 0 279 8 279 6 0 17 -13 24 -29 6 -16 18 -32 26
-35 8 -3 14 -12 14 -21 0 -8 4 -15 9 -15 5 0 20 -17 32 -37 13 -21 28 -43 34
-50 5 -6 19 -23 30 -37 11 -14 28 -36 38 -47 9 -12 17 -25 17 -29 0 -3 8 -15
18 -26 10 -10 37 -45 60 -76 32 -44 49 -58 67 -58 14 0 25 4 25 10 0 5 11 20
25 34 14 14 25 28 24 31 0 4 10 19 23 35 12 16 30 38 38 51 8 12 22 29 30 38
9 9 29 35 44 59 16 23 33 42 38 42 5 0 7 4 4 8 -3 5 6 20 20 35 13 14 24 31
24 36 0 6 8 15 19 20 10 6 22 22 25 36 13 52 24 22 23 -65 0 -56 -5 -90 -11
-90 -7 0 -7 -3 0 -8 15 -10 15 -224 0 -234 -8 -6 -8 -8 0 -8 6 0 11 -24 12
-60 0 -44 -3 -59 -11 -54 -8 5 -9 4 -2 -4 6 -6 47 -12 92 -14 66 -2 84 0 89
12 11 25 10 164 -1 173 -7 4 -7 10 0 15 11 8 12 172 1 191 -4 6 -3 11 1 11 10
0 11 96 1 106 -4 4 -4 14 0 23 4 9 7 77 7 151 l-1 135 -77 3 c-51 2 -77 -1
-77 -8 0 -6 -4 -9 -8 -6 -5 3 -15 -7 -23 -22 -8 -15 -22 -36 -33 -47 -10 -11
-25 -31 -34 -45 -17 -27 -29 -42 -62 -77 -11 -13 -20 -27 -20 -31 0 -4 -9 -14
-19 -22 -11 -7 -18 -17 -15 -21 2 -4 -6 -15 -18 -24 -13 -8 -22 -18 -20 -21 2
-3 -11 -24 -30 -46 -18 -23 -33 -44 -32 -47 0 -3 -14 -21 -31 -38 l-32 -33
-27 30 c-14 17 -24 30 -22 30 3 0 -8 15 -25 32 -16 18 -29 38 -29 45 0 7 -7
13 -17 13 -9 0 -14 3 -10 6 6 6 -6 24 -35 52 -10 9 -18 22 -18 28 0 7 -3 14
-7 16 -9 3 -44 45 -83 98 -14 19 -33 42 -42 52 -10 10 -16 18 -13 18 3 0 -3 8
-14 19 -10 10 -20 24 -23 31 -3 11 -83 32 -91 24z"/>
<path d="M1249 6328 c-4 -64 -3 -78 6 -78 7 0 7 -3 0 -8 -15 -11 -17 -32 -2
-32 7 0 8 -3 2 -8 -5 -4 -10 -29 -10 -57 0 -27 5 -53 10 -57 6 -5 6 -8 -1 -8
-6 0 -11 -7 -11 -15 0 -8 5 -15 11 -15 7 0 7 -3 1 -8 -5 -4 -10 -38 -10 -77 0
-38 5 -73 10 -77 7 -5 7 -8 0 -8 -6 0 -10 -32 -10 -75 0 -43 4 -75 10 -75 7 0
7 -3 0 -8 -5 -4 -10 -38 -10 -77 0 -38 5 -73 10 -77 6 -5 6 -8 -2 -8 -6 0 -9
-9 -6 -20 5 -18 14 -20 101 -20 52 0 92 3 89 7 -4 3 -2 12 4 20 8 9 8 13 1 13
-10 0 -9 31 2 48 2 4 1 14 -4 22 -5 8 -5 22 1 32 7 12 6 18 -1 18 -7 0 -8 6
-1 18 6 11 6 24 0 35 -7 12 -6 17 3 17 8 0 9 3 3 8 -15 11 -17 32 -3 32 9 0 9
3 0 12 -8 8 -8 17 -1 31 6 11 7 17 2 14 -5 -3 -9 3 -9 14 0 14 5 19 18 16 10
-3 18 -2 18 3 0 4 18 4 40 0 23 -4 40 -3 40 2 0 5 4 7 10 3 5 -3 113 -6 240
-6 l230 -1 0 -179 0 -179 95 0 c84 0 95 2 96 18 0 15 0 710 -1 775 l0 27 -95
0 -95 0 0 -145 c0 -80 0 -148 1 -152 2 -14 -32 -25 -45 -14 -9 7 -16 7 -23 0
-8 -8 -13 -8 -17 0 -5 8 -13 8 -26 1 -13 -7 -21 -7 -25 0 -4 7 -13 7 -26 0
-13 -8 -19 -7 -19 0 0 7 -6 8 -19 0 -12 -6 -22 -6 -26 -1 -3 6 -17 6 -35 1
-18 -5 -32 -5 -35 1 -4 5 -14 5 -26 -1 -13 -8 -19 -7 -19 0 0 7 -6 8 -19 1
-10 -6 -21 -7 -25 -4 -8 8 -66 10 -66 2 0 -8 -38 -4 -46 4 -10 9 -26 9 -21 -1
3 -4 -9 -7 -26 -7 -38 0 -59 22 -46 47 6 11 6 18 0 18 -10 0 -9 19 2 38 5 6 4
12 -2 12 -9 0 -8 31 3 48 2 4 1 14 -4 22 -5 8 -5 21 1 31 6 11 5 20 -1 24 -7
4 -7 12 0 25 7 13 7 21 0 25 -6 4 -8 11 -5 16 4 5 -33 9 -89 9 -70 0 -96 -3
-97 -12z"/>
<path d="M2637 6333 c-4 -3 -2 -12 4 -20 6 -7 8 -13 3 -13 -5 0 -9 -13 -9 -30
-1 -16 3 -30 7 -30 4 0 8 -5 8 -11 0 -5 -4 -8 -8 -5 -4 2 -8 -4 -8 -15 0 -10
5 -19 11 -19 6 0 7 -3 0 -8 -12 -9 -15 -72 -3 -72 5 0 6 -6 1 -12 -11 -18 -10
-52 2 -60 6 -5 5 -8 -2 -8 -9 0 -10 -7 -4 -23 5 -13 5 -30 1 -38 -6 -8 -4 -16
3 -21 8 -5 8 -8 1 -8 -11 0 -12 -75 -1 -86 4 -4 2 -15 -4 -25 -7 -14 -6 -19 2
-19 8 0 7 -5 -2 -17 -16 -19 -16 -23 3 -34 11 -8 11 -10 0 -18 -8 -4 -14 -12
-14 -16 0 -4 6 -12 14 -16 7 -5 8 -9 3 -9 -6 0 -11 -16 -11 -35 0 -19 4 -35 9
-35 4 0 5 -5 1 -12 -12 -18 -11 -58 1 -58 5 0 5 -4 -2 -8 -7 -4 -9 -13 -5 -19
8 -13 172 -22 172 -10 0 5 5 5 11 1 6 -4 9 1 8 12 -2 11 0 25 4 32 5 6 5 12 0
12 -10 0 -9 133 1 149 4 6 4 11 -1 11 -10 0 -9 92 1 108 4 7 4 12 -1 12 -12 0
-10 94 2 102 7 5 7 8 0 8 -11 0 -12 101 -1 118 4 7 4 12 -1 12 -12 0 -10 94 2
102 7 5 7 8 0 8 -6 0 -9 27 -8 65 l2 65 -93 0 c-51 0 -96 -3 -99 -7z"/>
<path d="M3249 6308 c0 -39 0 -709 1 -756 l0 -33 93 3 c91 3 92 3 92 28 0 14
3 30 7 36 4 6 4 14 0 18 -10 11 -10 209 0 223 8 9 59 4 71 -8 1 -1 12 3 25 10
15 8 22 8 22 1 0 -7 6 -8 19 0 16 8 27 3 60 -24 22 -18 37 -36 34 -40 -4 -3
-1 -6 5 -6 6 0 45 -33 87 -73 41 -40 75 -72 75 -71 0 1 23 -20 50 -46 48 -46
54 -48 115 -52 36 -1 65 -1 65 2 0 3 27 3 61 2 38 -3 65 1 73 8 6 6 7 10 1 8
-5 -1 -21 6 -33 17 -36 30 -57 47 -92 75 -18 14 -44 36 -58 50 -15 15 -45 39
-67 55 -22 16 -52 41 -66 56 -15 15 -33 29 -40 32 -13 5 24 11 44 8 39 -6 159
6 166 17 3 5 14 11 24 15 9 3 17 13 17 21 0 8 6 16 13 18 9 4 13 48 15 163 4
188 -5 222 -71 254 -38 19 -62 20 -424 21 l-383 0 -1 -32z m464 -111 c166 -2
206 -5 219 -17 11 -11 14 -37 14 -97 -1 -117 11 -112 -276 -110 l-234 2 -1
103 c-1 56 2 107 6 114 4 6 16 8 28 5 12 -3 21 -1 21 5 0 5 4 7 9 3 6 -3 102
-7 214 -8z"/>
<path d="M5670 6325 c0 -8 4 -15 8 -15 4 0 14 -16 21 -35 7 -19 16 -35 20 -35
4 0 13 -16 20 -35 7 -19 17 -35 22 -35 6 0 7 -4 4 -10 -3 -5 -2 -10 2 -10 5 0
14 -12 21 -27 6 -16 21 -41 31 -58 11 -16 28 -46 38 -65 9 -19 22 -38 27 -42
6 -4 7 -8 3 -8 -5 0 -1 -7 7 -16 9 -8 16 -22 16 -30 0 -8 4 -14 9 -14 5 0 16
-17 25 -37 17 -39 47 -94 56 -103 3 -3 11 -16 18 -29 8 -13 22 -38 32 -56 10
-18 24 -43 32 -56 7 -13 19 -32 27 -41 8 -10 11 -18 7 -18 -4 0 -1 -6 7 -14 8
-8 37 -15 68 -16 71 -2 84 -1 76 6 -3 4 -1 12 6 20 23 25 33 39 34 44 0 9 45
95 52 100 9 8 45 84 43 93 -1 4 3 7 10 7 6 0 8 3 5 7 -4 3 0 11 9 17 8 6 16
21 17 33 0 12 5 19 9 17 7 -5 12 10 9 29 0 4 3 7 7 7 5 0 31 44 58 98 27 53
55 103 62 110 7 8 9 18 6 24 -4 6 -3 9 2 6 5 -3 33 41 62 98 l52 104 -94 0
c-86 0 -95 -2 -101 -20 -3 -11 -13 -27 -22 -35 -8 -9 -16 -22 -17 -29 -1 -8
-8 -21 -15 -30 -7 -8 -10 -20 -6 -26 3 -5 2 -10 -4 -10 -5 0 -22 -26 -37 -57
-16 -32 -33 -61 -39 -65 -5 -4 -6 -8 -1 -8 5 0 2 -8 -7 -18 -10 -10 -14 -22
-10 -25 3 -4 1 -7 -5 -7 -7 0 -12 -6 -12 -14 0 -7 -7 -19 -15 -26 -8 -7 -15
-20 -15 -30 0 -9 -9 -27 -20 -40 -11 -13 -20 -29 -20 -37 0 -8 -7 -21 -15 -30
-8 -8 -13 -19 -10 -24 4 -5 2 -9 -3 -9 -5 0 -12 -9 -15 -20 -9 -35 -24 -22
-68 58 -23 42 -47 80 -53 84 -6 4 -8 8 -3 8 4 0 1 10 -8 23 -8 13 -12 27 -8
32 5 4 2 5 -4 1 -12 -6 -15 0 -12 20 0 4 -4 10 -9 13 -5 3 -20 26 -32 51 -12
25 -31 57 -41 71 -10 14 -16 29 -12 33 3 3 2 6 -3 6 -5 0 -27 36 -49 79 l-40
80 -107 0 c-90 1 -108 -2 -108 -14z"/>
<path d="M8099 6336 c-6 -5 -2 -299 4 -303 4 -2 5 -9 1 -14 -11 -19 -14 -58
-4 -64 7 -4 6 -13 -1 -26 -7 -15 -7 -24 1 -34 6 -7 7 -15 3 -18 -10 -6 -10
-208 0 -224 4 -7 4 -14 -1 -17 -7 -4 -8 -40 -3 -102 1 -13 37 -25 46 -16 3 3
29 5 58 4 28 -1 59 2 67 8 8 5 11 10 5 10 -6 0 -10 97 -10 270 0 149 2 270 4
270 2 0 16 -12 31 -27 15 -16 51 -48 81 -73 30 -25 66 -57 82 -72 15 -14 27
-24 27 -21 0 3 7 0 15 -7 8 -7 12 -17 8 -23 -3 -6 -1 -7 5 -3 6 3 29 -12 52
-34 22 -22 45 -40 50 -40 4 0 20 -14 34 -31 14 -17 26 -27 26 -22 0 4 5 0 11
-9 5 -10 17 -18 25 -18 8 0 12 -4 9 -10 -3 -5 -1 -10 4 -10 11 0 53 -34 96
-77 12 -13 25 -23 29 -23 3 0 20 -13 38 -30 28 -27 37 -30 97 -30 l66 0 0 410
1 411 -86 -3 -85 -3 0 -140 c0 -83 -4 -143 -10 -147 -6 -5 -7 -8 0 -8 6 0 11
-51 11 -130 1 -72 0 -130 -2 -130 -2 0 -21 18 -42 40 -22 21 -42 36 -46 33 -3
-4 -6 1 -6 10 0 9 -4 17 -9 17 -6 0 -40 26 -78 57 -37 32 -72 61 -78 66 -39
30 -63 56 -57 62 4 4 2 5 -4 3 -10 -3 -65 38 -115 85 -11 9 -23 17 -29 17 -5
0 -10 6 -10 13 0 8 -11 19 -25 25 -14 6 -25 16 -25 22 0 5 -6 10 -14 10 -8 0
-16 3 -18 8 -1 4 -25 26 -51 50 -47 42 -49 43 -112 41 -36 -1 -65 -3 -66 -3z"/>
<path d="M10695 6231 c0 -65 3 -107 9 -104 5 4 6 1 2 -6 -13 -21 -15 -81 -3
-81 8 0 8 -3 2 -8 -12 -9 -14 -152 -1 -152 4 0 4 -6 -2 -12 -13 -16 -13 -28 0
-52 5 -10 6 -16 1 -13 -5 3 -9 -30 -9 -79 1 -46 5 -84 10 -84 5 0 4 -6 -1 -12
-5 -7 -9 -33 -8 -58 l1 -45 84 0 85 0 1 250 c1 171 -2 255 -10 264 -9 12 -8
13 3 6 11 -6 13 -4 8 9 -5 13 -3 16 11 14 9 -2 16 -10 14 -17 -1 -7 2 -10 8
-6 5 3 10 1 10 -5 0 -6 5 -8 10 -5 6 3 10 -2 10 -11 0 -10 3 -15 6 -11 3 3 16
-4 29 -16 27 -26 117 -104 153 -132 14 -11 43 -36 64 -56 20 -20 40 -34 42
-32 3 3 11 -4 18 -16 7 -12 17 -21 21 -21 5 0 21 -12 37 -27 16 -16 45 -41 66
-58 20 -16 47 -40 60 -52 13 -13 25 -23 27 -23 3 0 19 -13 36 -29 26 -24 41
-30 92 -33 33 -1 64 2 68 7 4 6 7 190 7 410 l-1 400 -85 0 -85 0 1 -277 c1
-153 0 -278 -2 -278 -10 0 -58 57 -56 65 2 6 1 7 -3 3 -6 -6 -32 12 -74 52 -9
8 -37 31 -61 50 -25 19 -51 43 -58 52 -7 10 -17 18 -22 18 -4 0 -24 15 -43 33
-43 40 -79 67 -88 67 -4 0 -10 9 -14 20 -3 11 -9 19 -13 17 -7 -2 -38 22 -78
61 -13 12 -25 22 -28 22 -7 0 -61 47 -89 78 -18 19 -31 22 -91 22 l-71 0 0
-109z"/>
<path d="M11885 6322 c-3 -11 -2 -27 1 -37 5 -13 4 -16 -4 -11 -13 8 -16 -6
-4 -18 4 -4 8 -17 8 -29 3 -48 3 -48 24 -37 12 6 20 7 20 1 0 -6 11 -6 30 -1
17 5 30 5 30 1 0 -9 31 -8 48 3 6 4 12 3 12 -3 0 -6 11 -6 30 -1 18 5 32 5 36
-1 4 -6 11 -6 20 2 11 9 14 8 14 -2 0 -12 2 -12 9 0 6 9 10 10 16 2 5 -9 10
-9 20 -1 8 7 15 7 19 1 3 -5 16 -7 28 -3 17 4 20 2 15 -11 -3 -9 -2 -19 4 -22
5 -4 6 -11 3 -17 -9 -14 -11 -178 -3 -178 3 0 6 -7 6 -15 0 -8 -3 -12 -7 -10
-8 5 -6 -72 3 -81 3 -4 3 -14 -1 -23 -7 -14 -8 -91 -2 -116 1 -5 2 -12 1 -15
-7 -19 -6 -82 1 -86 4 -3 5 -11 1 -17 -12 -19 -12 -37 -1 -37 6 0 6 -6 -2 -15
-10 -12 -10 -16 1 -19 30 -10 119 -11 119 -1 0 6 5 3 10 -5 9 -13 10 -13 10 0
0 13 1 13 10 0 6 -9 10 -11 10 -3 0 7 7 10 15 7 13 -5 15 18 12 175 -1 116 2
181 8 181 7 0 7 3 0 8 -5 4 -10 40 -10 80 0 41 4 72 10 72 7 0 7 3 0 8 -5 4
-10 25 -10 47 0 22 5 43 10 47 6 5 6 8 -2 8 -6 0 -9 9 -6 20 3 11 9 18 13 15
5 -3 12 -1 15 5 5 8 11 8 20 0 9 -8 15 -8 20 0 3 6 12 7 18 3 16 -10 40 -10
54 0 7 5 18 5 25 1 16 -10 50 -10 66 0 6 4 12 3 12 -3 0 -6 11 -6 30 -1 16 5
32 5 35 0 2 -4 19 -5 37 -1 l32 7 0 69 0 70 -466 3 c-448 2 -467 1 -473 -16z"/>
<path d="M13058 6310 c-3 -17 0 -30 6 -30 7 0 7 -3 1 -8 -10 -7 -15 -252 -4
-252 3 0 5 -10 3 -22 -1 -13 -3 -23 -4 -23 -7 0 -3 -76 5 -79 6 -3 5 -5 -1 -5
-8 -1 -9 -12 -4 -35 4 -19 6 -37 3 -40 -10 -9 -8 -256 2 -256 6 0 5 -4 -2 -8
-27 -17 5 -31 77 -32 41 -1 80 -1 85 0 6 2 13 2 17 1 4 0 7 70 7 157 0 218 -1
205 16 198 8 -3 15 -1 15 5 0 6 5 7 12 3 17 -11 58 -11 58 -1 0 4 9 3 20 -3
11 -6 20 -7 20 -2 0 5 18 6 40 2 22 -4 40 -4 40 0 0 4 18 4 40 0 23 -4 40 -3
40 2 0 5 4 7 10 3 5 -3 67 -6 137 -6 70 -1 133 -5 140 -11 8 -6 9 -17 3 -32
-4 -13 -4 -29 0 -36 5 -8 6 -18 3 -23 -4 -7 -5 -148 -1 -212 0 -5 -1 -17 -3
-25 -3 -12 12 -16 84 -20 48 -3 87 -1 87 3 0 5 5 5 10 2 6 -3 10 4 10 17 1 29
1 698 0 756 l0 42 -96 0 -96 0 2 -32 c1 -18 1 -37 0 -43 -1 -5 -1 -32 0 -60 1
-47 1 -58 -1 -95 0 -8 0 -20 1 -25 5 -25 -1 -56 -10 -50 -5 3 -10 2 -10 -3 0
-10 -30 -9 -48 2 -7 4 -12 2 -12 -4 0 -6 -5 -8 -12 -4 -17 11 -48 12 -48 3 0
-9 -20 -7 -37 4 -6 4 -14 3 -18 -3 -4 -6 -12 -7 -18 -3 -15 9 -47 11 -47 3 0
-9 -32 -6 -48 4 -7 4 -12 2 -12 -4 0 -6 -5 -8 -12 -4 -18 11 -48 12 -48 2 0
-5 -9 -4 -20 2 -11 6 -20 7 -20 2 0 -10 -30 -9 -48 2 -7 4 -12 2 -12 -4 0 -6
-5 -8 -12 -4 -17 11 -48 12 -48 3 0 -4 -12 -4 -27 2 -26 9 -28 13 -28 64 0 30
4 55 8 55 5 0 5 5 1 12 -4 6 -6 49 -6 95 l2 83 -94 0 -94 0 -4 -30z"/>
<path d="M15682 6333 c-10 -4 -10 -8 -1 -19 9 -11 9 -14 0 -14 -8 0 -9 -5 -1
-19 7 -14 7 -22 0 -26 -8 -5 -7 -11 1 -21 9 -11 9 -14 0 -14 -8 0 -9 -5 -1
-19 7 -14 7 -22 0 -26 -8 -5 -7 -11 1 -21 9 -11 9 -14 0 -14 -8 0 -9 -5 -1
-19 5 -11 6 -22 2 -25 -10 -6 -9 -42 1 -52 3 -4 1 -16 -5 -28 -6 -11 -10 -23
-9 -26 2 -3 7 -13 12 -22 6 -10 5 -19 -1 -23 -6 -4 -7 -13 -1 -24 6 -10 6 -23
1 -31 -5 -8 -5 -21 0 -30 5 -9 4 -23 -1 -32 -6 -11 -6 -19 1 -23 7 -4 7 -13 0
-26 -8 -13 -7 -19 0 -19 8 0 8 -6 0 -20 -8 -15 -8 -20 1 -20 8 0 8 -4 1 -13
-7 -8 -7 -18 -2 -27 5 -8 6 -19 2 -24 -10 -16 -10 -46 0 -46 5 0 6 -6 1 -12
-12 -20 -12 -38 -1 -38 6 0 6 -6 -2 -15 -15 -18 6 -23 108 -27 62 -3 72 -1 72
14 0 9 5 20 10 23 6 4 7 12 3 18 -5 7 -8 68 -8 137 l1 125 237 2 c130 1 242 5
247 8 6 3 10 2 10 -4 0 -6 6 -9 13 -6 6 2 28 6 47 8 51 7 63 10 78 25 8 7 18
9 24 6 7 -4 8 -2 4 4 -4 7 -3 12 3 12 25 0 47 196 27 229 -4 6 -3 11 1 11 8 0
8 38 0 90 -8 47 -29 77 -68 98 -37 20 -54 21 -416 21 -208 0 -384 -3 -391 -6z
m624 -135 c53 -3 69 -27 71 -110 1 -39 -3 -68 -8 -68 -6 0 -8 -4 -4 -9 14 -24
-42 -30 -266 -28 l-233 2 -1 105 0 105 193 0 c105 0 192 4 192 8 0 5 4 6 8 3
5 -3 26 -6 48 -8z"/>
<path d="M16830 6328 c-5 -182 -3 -388 3 -388 5 0 5 -5 1 -11 -10 -17 -11
-189 0 -189 5 0 3 -6 -3 -13 -6 -8 -9 -16 -6 -18 2 -3 5 -24 6 -47 2 -24 7
-46 11 -48 5 -3 6 -10 3 -15 -4 -5 -2 -9 3 -9 5 0 12 -9 15 -20 3 -13 17 -22
36 -26 17 -4 31 -10 31 -15 0 -14 724 -6 742 8 8 7 18 10 21 6 4 -3 7 1 7 11
0 9 4 15 9 12 14 -9 41 95 38 147 -1 27 1 51 6 54 5 3 3 10 -4 15 -11 7 -11
11 -1 15 6 2 10 9 6 14 -8 13 -8 344 0 357 3 6 0 13 -6 16 -11 5 -11 7 0 12 6
3 10 10 7 14 -8 14 -10 104 -2 116 5 8 -22 12 -92 13 -90 2 -99 0 -104 -18 -2
-10 0 -24 6 -30 7 -7 7 -11 1 -11 -6 0 -11 -7 -11 -15 0 -8 4 -15 9 -15 5 0 4
-8 -1 -18 -5 -10 -6 -24 -1 -31 4 -8 4 -26 0 -41 -4 -15 -4 -33 0 -40 5 -7 4
-24 -1 -37 -6 -16 -5 -22 1 -18 6 4 7 -2 1 -18 -6 -16 -6 -28 2 -36 7 -7 7
-11 1 -11 -6 0 -11 -7 -11 -15 0 -8 4 -15 9 -15 5 0 4 -10 -3 -21 -8 -16 -8
-20 1 -14 9 6 9 2 1 -14 -9 -16 -9 -21 1 -21 8 0 9 -3 3 -8 -9 -6 -11 -27 -5
-42 6 -18 7 -40 1 -40 -4 0 -8 -7 -8 -15 0 -8 4 -15 9 -15 5 0 6 -6 2 -12 -11
-18 -12 -48 -2 -48 4 0 8 -5 8 -11 0 -5 -4 -8 -9 -5 -4 3 -7 -5 -6 -19 3 -21
0 -23 -20 -15 -14 5 -26 5 -33 -2 -6 -6 -12 -6 -16 1 -4 6 -15 7 -30 1 -15 -5
-27 -5 -34 2 -6 6 -12 6 -16 -1 -5 -8 -13 -8 -27 -1 -13 8 -19 7 -19 0 0 -8
-6 -8 -20 0 -14 8 -20 8 -20 0 0 -8 -6 -8 -20 0 -14 8 -26 8 -40 0 -14 -8 -20
-8 -20 0 0 7 -6 7 -21 0 -15 -8 -24 -8 -34 0 -9 8 -15 8 -20 0 -3 -6 -12 -7
-18 -3 -18 11 -36 12 -43 2 -3 -5 -11 -6 -17 -2 -6 4 -27 6 -46 4 -28 -1 -32
1 -23 12 7 8 10 16 7 18 -9 9 -13 99 -4 93 5 -3 5 5 0 18 -4 13 -5 35 0 50 4
16 4 28 -1 28 -6 0 -6 10 0 25 5 14 6 25 2 25 -4 0 -7 22 -7 49 0 27 3 47 7
45 4 -3 4 5 -1 18 -4 13 -5 35 0 50 5 18 4 28 -3 28 -7 0 -6 5 1 14 9 11 9 15
0 18 -9 3 -9 9 0 25 8 16 8 24 0 29 -8 4 -7 9 2 15 9 6 10 9 2 9 -8 0 -9 9 -3
30 5 19 5 30 -1 30 -6 0 -7 9 -4 20 6 19 2 20 -89 20 -70 0 -96 -3 -96 -12z"/>
<path d="M18170 6303 c-1 -56 -1 -658 0 -726 l0 -58 93 3 92 3 -1 48 c0 26 4
47 9 47 6 0 6 5 0 13 -7 9 -10 157 -4 200 0 4 11 2 24 -4 23 -13 25 -13 44 2
7 7 14 6 18 -1 3 -6 12 -7 18 -3 17 10 47 11 53 1 3 -4 9 -6 13 -4 4 3 47 -33
95 -80 49 -46 89 -84 90 -84 2 0 35 -31 75 -70 l73 -70 136 0 136 0 -32 28
c-17 15 -40 34 -50 42 -24 19 -95 78 -130 107 -15 13 -31 23 -35 23 -5 0 -5 5
-2 10 3 6 1 10 -5 10 -6 0 -20 9 -32 20 -12 11 -28 20 -35 20 -8 0 -12 4 -8 9
3 5 -5 13 -17 17 -21 6 -21 7 -3 20 12 9 23 10 36 3 13 -7 19 -6 19 1 0 7 7 8
18 3 15 -8 38 -9 52 -3 11 4 36 10 54 12 37 6 74 54 82 108 10 60 4 279 -8
306 -17 37 -43 63 -68 67 -11 2 -22 6 -26 10 -4 3 -179 6 -390 7 l-384 0 0
-37z m468 -105 c53 -2 92 1 92 7 0 5 5 4 12 -3 8 -8 15 -9 25 -1 10 9 13 8 13
-1 0 -9 3 -10 13 -1 10 8 17 7 25 -1 7 -7 12 -8 12 -3 0 4 9 -2 19 -14 15 -18
19 -35 17 -79 -1 -31 2 -63 7 -69 6 -9 5 -13 -2 -13 -6 0 -11 -7 -11 -15 0
-29 -39 -34 -271 -35 l-234 -1 0 113 0 113 58 1 c32 1 60 4 62 6 3 2 19 3 37
1 18 -2 75 -4 126 -5z"/>
<path d="M19667 6313 c-8 -16 -26 -49 -39 -75 -14 -26 -29 -44 -33 -40 -5 4
-6 3 -3 -3 4 -5 -5 -28 -18 -50 -13 -22 -27 -48 -30 -57 -4 -10 -10 -18 -15
-18 -5 0 -9 -7 -9 -15 0 -8 -11 -31 -25 -51 -14 -20 -22 -40 -19 -45 3 -5 0
-9 -6 -9 -6 0 -14 -8 -17 -17 -4 -10 -29 -55 -55 -101 -26 -46 -48 -88 -48
-93 0 -5 -4 -9 -10 -9 -5 0 -10 -7 -10 -15 0 -9 -9 -25 -20 -37 -10 -12 -17
-24 -15 -28 3 -4 -2 -13 -10 -20 -8 -7 -15 -19 -15 -26 0 -8 -5 -14 -12 -14
-6 0 -8 -3 -5 -6 4 -4 -2 -19 -13 -35 l-20 -27 65 -4 c37 -2 67 1 69 7 3 6 5
5 5 -2 1 -6 10 -9 24 -6 29 8 48 23 41 34 -3 5 0 9 5 9 6 0 11 7 11 16 0 9 5
12 12 8 8 -5 9 -2 5 9 -4 10 -1 17 5 17 6 0 8 3 5 6 -4 4 2 19 13 34 11 16 20
33 20 39 0 8 79 11 263 11 l263 0 33 -65 c17 -36 36 -65 42 -65 6 0 8 -4 5 -9
-4 -5 -4 -16 0 -24 4 -12 28 -15 116 -16 87 -2 109 1 104 11 -3 7 -9 21 -12
31 -4 9 -10 17 -15 17 -5 0 -9 9 -9 21 0 11 -4 17 -10 14 -5 -3 -10 2 -10 12
0 10 -9 29 -20 43 -11 14 -20 31 -20 38 0 6 -3 12 -8 12 -4 0 -13 15 -21 33
-8 17 -23 45 -35 62 -11 16 -21 36 -23 44 -1 9 -7 17 -13 19 -5 2 -8 8 -4 13
3 5 0 9 -5 9 -6 0 -11 7 -11 15 0 8 -3 15 -8 15 -4 0 -13 15 -21 33 -8 17 -27
51 -43 75 -15 24 -28 50 -28 58 0 7 -4 14 -9 14 -5 0 -15 16 -22 35 -7 19 -17
35 -21 35 -4 0 -8 6 -8 14 0 8 -3 16 -7 18 -5 2 -19 26 -33 53 -37 75 -38 75
-139 75 -88 0 -90 -1 -104 -27z m118 -153 c-3 -6 3 -22 14 -36 11 -15 18 -30
15 -35 -3 -5 0 -9 5 -9 6 0 11 -4 11 -10 0 -5 14 -32 30 -61 17 -28 32 -56 33
-63 1 -6 4 -13 7 -16 7 -7 40 -67 40 -73 0 -3 -36 -5 -81 -5 -44 0 -83 -3 -86
-6 -4 -3 -12 -1 -20 5 -7 6 -13 8 -13 3 0 -5 -20 -9 -45 -9 -25 0 -45 3 -45 8
0 9 -23 5 -31 -6 -3 -4 -12 -1 -19 8 -9 11 -9 15 -1 15 7 0 9 5 6 10 -3 6 -2
10 4 10 5 0 15 16 21 35 6 19 16 35 22 35 6 0 8 3 5 6 -4 4 1 19 11 33 10 14
24 38 32 54 7 15 17 27 21 27 5 0 6 7 3 15 -4 8 -1 15 5 15 6 0 11 6 11 14 0
17 27 46 41 46 6 0 7 -5 4 -10z"/>
</g>
</svg>
